<?xml version="1.0" standalone="no"?>
<!DOCTYPE svg PUBLIC "-//W3C//DTD SVG 20010904//EN"
 "http://www.w3.org/TR/2001/REC-SVG-20010904/DTD/svg10.dtd">
<svg version="1.0" xmlns="http://www.w3.org/2000/svg"
 width="1024.000000pt" height="1024.000000pt" viewBox="0 0 1024.000000 1024.000000"
 preserveAspectRatio="xMidYMid meet">

<g transform="translate(0.000000,1024.000000) scale(0.100000,-0.100000)"
fill="#000000" stroke="none">
<path d="M5425 9091 c20 -8 20 -8 -1 -15 -12 -4 -27 -5 -34 -4 -7 2 -14 -5
-15 -14 -4 -20 11 -24 18 -5 3 6 6 2 6 -10 1 -13 6 -23 13 -23 6 0 3 -6 -7
-14 -15 -10 -19 -27 -19 -70 -1 -58 -5 -63 -35 -46 -16 8 -19 4 -24 -38 -3
-26 -1 -48 4 -50 5 -2 9 -20 8 -40 0 -30 -2 -33 -9 -17 -7 16 -9 17 -9 3 -1
-9 -6 -20 -12 -23 -7 -5 -9 8 -5 41 4 37 3 41 -3 19 -5 -16 -9 -56 -10 -88 -1
-55 0 -58 20 -52 15 5 19 4 15 -4 -4 -6 -15 -11 -24 -12 -11 -1 -8 -4 8 -9
l25 -8 -25 -1 c-15 -1 -30 -5 -35 -10 -6 -5 -28 -14 -50 -21 -110 -35 -235
-132 -277 -215 -12 -22 -26 -43 -32 -47 -6 -4 -42 -8 -81 -8 -38 -1 -104 -5
-145 -11 -111 -15 -212 -20 -205 -9 3 5 1 11 -5 15 -6 4 -8 11 -5 16 3 5 0 6
-8 3 -21 -8 -40 22 -33 51 6 23 -8 62 -28 76 -5 4 -6 11 -3 16 3 5 2 15 -4 23
-6 11 -9 12 -9 2 0 -7 -5 -10 -10 -7 -6 4 -8 16 -5 28 5 16 4 18 -3 8 -8 -11
-12 -9 -22 8 -6 13 -9 29 -6 36 2 7 -2 16 -10 19 -8 3 -14 17 -14 31 0 30 -35
48 -62 32 -18 -12 -48 5 -48 27 0 7 3 7 8 1 4 -5 17 -11 29 -12 16 -2 21 2 17
12 -4 8 -1 15 5 15 6 0 11 -4 11 -10 0 -5 5 -10 10 -10 11 0 6 12 -24 65 -10
17 -20 38 -23 48 -3 9 -9 17 -13 17 -4 0 -10 10 -14 23 -5 19 -8 20 -17 7 -9
-13 -10 -12 -5 3 3 10 -5 39 -19 65 -40 78 -39 77 -69 46 -14 -16 -26 -37 -26
-46 0 -10 -4 -18 -10 -18 -5 0 -10 -18 -10 -40 0 -22 -4 -40 -10 -40 -5 0 -10
18 -10 40 0 22 5 40 10 40 6 0 10 17 10 38 0 31 -5 41 -30 55 -20 12 -35 15
-46 9 -24 -13 -65 -2 -73 20 -4 12 -7 -4 -8 -39 -1 -47 1 -53 9 -32 8 25 40
44 52 31 3 -3 6 -21 6 -40 0 -25 -5 -35 -20 -39 -29 -8 -26 -58 7 -106 24 -34
27 -48 27 -116 0 -62 1 -71 10 -48 12 34 21 35 24 1 3 -34 9 -43 38 -54 18 -7
24 -16 23 -37 -2 -25 -2 -25 -6 -5 -5 23 -28 40 -40 28 -3 -3 1 -14 9 -23 9
-10 19 -29 23 -43 7 -21 6 -22 -7 -10 -8 8 -19 24 -26 35 -11 19 -11 19 -12
-2 0 -13 5 -23 10 -23 6 0 10 -8 8 -17 -2 -10 3 -17 10 -16 6 2 12 -1 12 -6 0
-5 5 -22 12 -38 6 -15 11 -31 10 -35 -3 -15 31 -8 51 10 20 17 20 17 3 -16 -9
-18 -14 -37 -11 -43 4 -5 1 -8 -6 -7 -7 2 -14 -6 -16 -17 -3 -15 -2 -16 5 -7
12 18 24 -17 27 -83 l3 -50 -164 -84 c-90 -47 -167 -82 -170 -78 -4 3 -3 36 1
72 7 64 8 67 70 129 68 68 83 103 72 173 -8 47 -60 101 -112 115 -33 9 -46 20
-70 61 -44 72 -124 142 -180 156 -68 17 -119 0 -175 -58 -51 -52 -69 -100 -71
-184 -1 -51 -4 -58 -45 -96 -74 -70 -83 -158 -22 -227 34 -39 57 -51 133 -69
45 -10 55 -18 103 -81 29 -38 65 -79 80 -91 l27 -23 -31 -27 c-66 -59 -109
-92 -121 -93 -6 0 -28 17 -48 38 -34 37 -39 39 -85 34 -40 -4 -51 -1 -56 12
-3 9 -14 16 -24 16 -13 0 -16 6 -13 24 3 16 -1 25 -13 30 -11 4 -20 2 -22 -3
-7 -22 -22 1 -22 34 0 47 14 51 36 10 14 -26 21 -32 31 -23 7 6 13 16 13 23 0
16 -34 55 -49 55 -7 0 -10 4 -7 8 7 11 -47 69 -60 65 -12 -4 -28 26 -19 35 3
3 5 0 5 -6 0 -7 5 -12 12 -12 6 0 1 11 -11 24 -19 20 -21 30 -15 74 11 85 -31
133 -129 148 -30 5 -55 19 -88 49 -33 31 -58 45 -90 50 -24 4 -51 11 -60 15
-18 10 -44 -4 -35 -19 4 -5 -2 -27 -13 -48 -10 -21 -22 -61 -26 -88 -6 -41
-15 -58 -50 -92 -49 -48 -61 -84 -45 -142 12 -46 45 -76 102 -93 28 -8 50 -25
72 -55 17 -23 39 -45 49 -48 9 -4 15 -11 12 -16 -4 -5 -1 -9 4 -9 6 0 10 -5 9
-12 -2 -6 8 -12 22 -12 18 -1 26 -7 28 -23 4 -25 14 -28 43 -13 15 8 19 7 19
-5 0 -8 -5 -15 -10 -15 -6 0 -5 -8 2 -19 7 -11 15 -18 19 -15 4 2 10 0 14 -6
9 -15 25 -12 25 5 0 8 4 15 9 15 23 0 41 -14 41 -31 0 -14 7 -19 30 -19 17 0
30 -3 30 -7 0 -12 -60 -7 -72 5 -16 16 -25 15 -31 -2 -4 -9 0 -12 13 -9 12 3
22 -3 30 -17 10 -18 14 -20 21 -9 7 12 9 12 9 0 0 -14 28 -40 44 -41 4 0 6 9
3 20 -7 29 30 26 57 -4 28 -32 30 -45 9 -69 -18 -19 -17 -19 5 -12 22 6 22 5
10 -14 -15 -24 -9 -23 -76 -24 -30 -1 -56 1 -59 6 -2 4 4 7 14 8 14 0 13 2 -5
9 -12 5 -25 18 -29 27 -7 18 -41 48 -55 48 -4 0 -16 10 -28 23 -11 12 -25 22
-30 22 -5 0 -15 6 -22 13 -7 6 -33 25 -57 41 -35 22 -45 25 -53 14 -8 -10 -9
-10 -5 3 3 9 -4 22 -15 30 -11 8 -29 23 -40 34 l-19 20 6 -20 c4 -11 -4 0 -17
25 -13 25 -33 55 -45 68 -13 12 -23 27 -23 33 0 5 -4 7 -10 4 -5 -3 -10 -1
-10 5 0 12 -96 125 -173 203 -26 26 -47 53 -47 59 0 5 -6 8 -14 5 -20 -8 -50
17 -43 36 7 19 -9 34 -48 41 -24 5 -26 4 -10 -3 20 -9 20 -10 -1 -10 -12 -1
-27 6 -35 15 -17 20 -84 12 -154 -20 -67 -30 -157 -118 -153 -148 2 -14 -2
-22 -9 -21 -7 2 -10 -4 -7 -12 4 -8 2 -15 -4 -15 -24 0 -32 -143 -10 -183 5
-11 38 -51 71 -91 113 -131 162 -189 219 -265 32 -42 64 -83 71 -91 7 -8 26
-33 41 -55 16 -22 -75 65 -200 193 -164 166 -235 232 -252 232 -12 0 -22 4
-22 10 0 5 -15 7 -32 5 -29 -5 -28 -3 9 11 38 14 60 44 32 44 -5 0 -7 -5 -3
-11 3 -6 -4 -4 -17 4 -19 13 -33 14 -69 6 -139 -31 -255 -139 -265 -246 -6
-62 23 -170 60 -224 16 -22 83 -93 149 -157 154 -150 262 -262 254 -262 -4 0
-17 10 -29 23 l-21 22 6 -25 c3 -14 3 -19 0 -12 -7 14 -24 16 -24 3 0 -5 9
-13 20 -16 11 -4 18 -11 14 -16 -3 -5 -10 -6 -16 -3 -6 4 -8 2 -5 -4 4 -5 18
-9 32 -7 14 1 23 0 21 -3 -3 -2 7 -20 21 -39 14 -18 23 -36 19 -40 -3 -3 27
-40 68 -82 40 -42 147 -152 237 -244 90 -93 166 -176 167 -184 4 -16 -24 -47
-68 -75 -31 -21 -131 -23 -124 -4 3 9 -16 21 -58 36 -35 13 -79 33 -98 45 -19
12 -38 22 -43 23 -14 1 -102 36 -107 42 -3 3 -32 16 -65 29 -33 13 -70 27 -83
32 -13 5 -32 9 -42 9 -11 0 -19 6 -17 13 1 7 -8 11 -26 10 -21 -1 -27 2 -24
12 6 14 -13 25 -44 25 -11 0 -18 4 -15 9 7 11 -38 31 -69 31 -29 0 -32 -8 -7
-26 9 -7 14 -14 11 -14 -4 0 -33 21 -65 46 -83 64 -108 75 -164 73 -28 -2 -53
0 -57 4 -3 4 26 7 66 7 61 0 70 2 59 13 -28 28 -57 37 -100 31 -33 -6 -38 -9
-23 -15 15 -5 11 -7 -15 -7 -19 1 -51 -7 -70 -17 -36 -17 -152 -104 -158 -116
-2 -4 -14 -20 -28 -36 -27 -31 -57 -112 -50 -134 2 -8 8 -27 12 -44 l7 -30 8
25 c6 18 7 13 3 -16 -11 -88 18 -119 451 -481 129 -107 165 -143 143 -139 -7
1 -25 9 -39 19 -14 9 -47 21 -73 26 -33 6 -59 19 -84 44 -63 60 -99 70 -152
42 -33 -17 -55 -53 -65 -108 -6 -31 -9 -34 -21 -22 -8 7 -14 20 -14 27 0 10
-3 9 -10 -2 -5 -8 -10 -10 -10 -4 0 7 -16 15 -35 18 -20 4 -33 11 -30 17 8 12
-21 12 -46 -1 -21 -12 -27 -60 -7 -60 6 0 8 -3 5 -6 -4 -4 -13 -1 -22 6 -9 7
-18 10 -22 6 -3 -3 -1 -6 5 -6 6 0 9 -10 6 -22 -6 -33 -9 -146 -4 -151 3 -2
17 -7 32 -11 20 -5 28 -2 31 11 3 10 5 -11 6 -46 1 -51 4 -62 16 -58 8 4 18 1
21 -5 5 -8 10 -5 14 7 4 12 1 25 -7 33 -8 9 -12 34 -12 70 l2 57 6 -57 c3 -31
11 -62 18 -69 7 -7 8 -20 4 -33 -10 -25 -8 -63 4 -73 4 -5 5 -2 1 5 -9 15 -1
15 25 2 14 -8 19 -7 19 3 0 7 12 18 28 24 25 11 26 11 2 7 -16 -2 -34 4 -50
17 -20 17 -21 19 -5 14 11 -4 41 -12 68 -18 51 -11 63 -27 20 -27 -16 0 -35
-5 -43 -10 -11 -8 -6 -9 17 -5 24 4 33 1 33 -9 0 -7 7 -19 16 -27 13 -10 17
-10 25 2 5 8 9 9 9 3 0 -6 -9 -21 -20 -34 -24 -27 -25 -40 -5 -40 8 0 15 4 15
8 0 5 11 14 25 20 22 10 25 9 25 -7 0 -11 -8 -22 -17 -25 -10 -3 -5 -4 11 -2
50 6 58 -3 29 -32 l-27 -26 25 -7 c13 -4 20 -7 15 -8 -5 -1 -3 -7 3 -15 14
-17 -2 -28 -54 -40 -67 -16 -206 -127 -265 -212 -36 -51 -70 -151 -70 -203 0
-129 196 -685 386 -1096 41 -88 74 -163 74 -168 0 -4 -23 -38 -52 -75 -85
-110 -128 -227 -128 -346 0 -105 57 -267 129 -366 28 -39 31 -49 25 -85 -4
-22 -6 -56 -5 -76 2 -42 -7 -51 -69 -68 -181 -51 -276 -211 -226 -382 28 -96
104 -194 187 -241 l36 -20 -1 -72 c-1 -57 3 -79 22 -109 17 -29 22 -54 22
-103 0 -37 4 -64 10 -64 6 0 8 -10 4 -24 -3 -13 -1 -27 4 -30 6 -4 8 2 5 14
-7 25 13 27 21 3 3 -10 4 -6 2 9 -2 16 0 28 5 28 5 0 7 -22 6 -49 -1 -27 -5
-44 -9 -38 -4 6 -9 9 -12 7 -2 -3 2 -13 9 -23 13 -18 14 -17 20 2 3 12 14 21
23 20 11 0 12 -3 5 -6 -7 -2 -13 -9 -13 -15 0 -6 7 -8 15 -4 11 4 15 -1 15
-19 0 -26 14 -34 24 -12 3 6 3 2 0 -10 -5 -20 -2 -23 28 -23 29 -1 31 -2 16
-14 -10 -7 -15 -16 -11 -19 3 -4 12 -2 19 4 14 12 38 3 29 -11 -8 -13 80 -23
141 -16 83 10 110 27 106 67 -1 3 11 5 26 3 15 -1 35 4 44 13 16 14 22 11 74
-35 138 -123 315 -157 435 -83 88 54 178 180 194 273 8 45 20 55 43 35 31 -27
203 -108 294 -138 154 -50 269 -69 453 -76 219 -7 339 9 583 79 42 12 42 12
85 -28 141 -135 332 -235 515 -270 95 -18 298 -18 384 1 75 15 212 72 272 111
l38 26 57 -25 c72 -33 151 -54 226 -63 33 -3 97 -17 142 -30 116 -33 267 -46
373 -33 47 6 150 14 230 18 175 10 217 24 447 144 112 59 174 98 220 141 l65
59 96 -23 c67 -16 129 -24 202 -25 85 -1 177 -16 199 -31 7 -5 -38 -69 -68
-98 -41 -40 -41 -75 2 -123 19 -21 48 -59 66 -85 52 -78 98 -89 147 -35 50 53
124 164 124 186 0 11 -25 48 -55 82 -30 34 -55 65 -55 69 0 16 96 40 162 40
115 0 323 86 433 180 33 28 92 75 131 105 39 29 83 67 97 84 14 17 29 31 33
31 5 0 22 -13 39 -29 25 -25 39 -30 85 -32 30 -1 57 -5 60 -9 3 -4 19 -1 35 6
l30 13 -30 2 c-27 1 -26 2 10 9 22 4 45 4 51 -1 6 -5 19 -2 32 7 12 8 27 12
32 9 6 -4 25 -3 42 0 28 7 30 9 15 20 -18 13 -23 45 -7 45 6 0 10 -9 10 -20 0
-25 16 -25 58 0 18 11 36 19 40 18 12 -3 62 24 62 34 0 4 5 7 12 6 13 -3 35
70 42 140 4 31 1 42 -9 42 -8 0 -12 6 -9 13 2 7 -4 22 -16 32 -25 23 -25 37 1
105 17 44 20 69 16 123 l-6 67 59 40 c111 76 171 173 178 290 5 88 -15 143
-72 201 -35 37 -35 37 -15 55 13 12 23 14 27 8 4 -6 15 -13 25 -17 9 -3 17
-11 17 -16 0 -10 -25 -9 -36 2 -14 14 -26 7 -14 -8 7 -9 20 -13 28 -10 9 3 12
0 9 -8 -3 -7 11 -22 34 -35 43 -25 44 -24 27 13 -11 25 -28 34 -28 15 0 -5 -4
-10 -10 -10 -5 0 -10 7 -10 15 0 8 4 15 9 15 5 0 11 7 14 14 4 11 1 13 -10 9
-13 -5 -15 -2 -10 11 4 10 3 15 -3 11 -6 -3 -10 0 -10 9 0 8 -4 16 -8 18 -20
8 -133 160 -129 172 3 7 25 23 50 35 49 24 78 51 101 96 9 17 16 24 16 16 0
-11 5 -10 20 4 20 18 21 18 43 -3 18 -19 19 -22 4 -22 -10 0 -17 -8 -17 -20 0
-20 20 -19 49 4 7 6 21 11 29 11 23 0 27 24 5 32 -10 4 -23 14 -30 22 -8 11
-12 12 -13 4 0 -22 -20 -14 -20 8 0 15 -4 19 -16 15 -12 -5 -15 -2 -10 10 5
14 4 15 -9 4 -31 -26 -13 10 68 131 189 284 318 536 380 739 69 228 62 317
-37 458 -18 26 -45 73 -60 105 -16 34 -57 88 -97 130 -37 39 -67 73 -65 74 2
2 50 4 107 6 85 2 112 6 151 25 53 26 108 78 108 102 0 22 -55 104 -97 145
-22 21 -52 38 -84 45 -27 7 -47 16 -44 21 3 4 13 5 21 2 11 -4 15 0 12 13 -2
14 2 18 16 16 13 -3 17 1 13 12 -6 14 15 41 25 31 3 -3 11 1 18 10 8 10 9 15
1 15 -6 0 -11 7 -11 15 0 18 16 20 24 3 3 -7 3 -1 0 15 -6 27 10 39 19 15 3
-7 6 4 6 24 1 20 6 49 11 64 8 19 7 31 -2 42 -10 12 -10 14 0 8 18 -11 15 0
-13 44 -16 25 -33 40 -45 40 -15 0 -20 7 -20 25 0 74 -59 137 -145 155 -30 6
-55 17 -55 23 1 7 7 39 15 72 21 85 19 200 -4 250 -24 54 -80 101 -143 120
-28 8 -58 15 -65 15 -18 0 -16 7 9 43 14 20 23 50 26 86 3 48 0 62 -22 94 -24
35 -25 40 -10 54 11 11 12 19 5 26 -17 17 -13 27 7 20 9 -3 14 -3 10 1 -4 5 1
22 10 39 16 29 20 95 10 152 -2 14 9 26 43 45 65 35 72 43 103 107 36 72 32
133 -14 218 -46 86 -60 101 -115 131 -27 15 -52 28 -54 30 -2 2 3 18 12 36 8
18 21 60 28 94 11 55 10 64 -7 99 -29 59 -64 80 -135 80 -55 0 -60 2 -54 20
29 90 21 151 -23 198 -30 31 -91 51 -130 42 l-27 -5 0 123 c0 122 -1 125 -35
193 -27 53 -46 76 -84 102 -26 17 -59 32 -71 32 -20 0 -23 5 -23 36 0 19 -3
38 -6 41 -3 4 -6 -6 -6 -20 0 -23 -4 -27 -27 -27 -16 0 -23 4 -17 8 15 10 14
43 -2 67 -8 11 -14 34 -14 51 0 26 -4 33 -27 37 -30 6 -74 -18 -67 -37 3 -8
-8 -13 -32 -14 -36 -3 -84 -21 -56 -22 6 0 12 -5 12 -11 0 -5 -4 -8 -9 -4 -5
3 -12 1 -15 -4 -3 -5 -16 -7 -28 -3 -18 4 -20 2 -16 -16 6 -22 -6 -30 -17 -12
-4 6 -15 2 -27 -10 -12 -11 -25 -20 -29 -20 -4 0 -9 -7 -12 -14 -4 -10 -1 -13
8 -10 7 3 16 12 19 20 3 8 10 14 16 14 6 0 8 -4 5 -10 -3 -6 4 -10 17 -10 18
0 20 -2 8 -9 -8 -6 -18 -7 -23 -4 -13 8 -48 -29 -43 -44 3 -7 1 -13 -3 -13 -5
0 -11 5 -13 11 -5 15 -55 -6 -67 -29 -7 -12 -7 -31 -1 -51 7 -26 5 -33 -12
-45 -11 -8 -17 -19 -13 -26 4 -6 -12 -2 -35 10 -24 12 -66 24 -94 27 l-51 5 0
77 c-1 119 -45 184 -140 210 -51 13 -124 -5 -195 -48 -28 -17 -60 -31 -73 -31
-15 0 -18 -3 -9 -9 10 -6 9 -11 -4 -22 -10 -8 -15 -9 -11 -3 4 7 -2 14 -13 17
-11 3 -18 1 -14 -4 3 -5 0 -9 -7 -9 -10 0 -10 -3 -1 -12 19 -19 14 -26 -13
-21 -19 4 -25 0 -31 -21 -4 -18 -13 -26 -28 -25 -11 0 -15 3 -9 6 7 2 11 14 9
26 -1 12 -1 16 1 9 4 -10 9 -8 20 8 20 29 13 33 -29 15 -34 -13 -36 -13 -41 5
-3 11 -1 20 5 20 6 0 8 14 4 38 -5 29 -4 34 5 22 9 -13 10 -13 6 2 -3 9 -1 30
6 47 10 27 9 33 -8 45 -11 8 -22 13 -25 11 -3 -2 -4 12 -2 31 3 21 0 34 -7 34
-6 0 -11 8 -12 18 0 10 -3 12 -6 5 -7 -18 -23 -16 -23 2 0 8 -6 15 -14 15 -9
0 -12 -7 -9 -20 4 -16 2 -19 -11 -14 -17 7 -18 34 -1 46 6 4 18 5 29 2 12 -4
16 -2 12 5 -4 6 -18 11 -31 11 -13 0 -25 5 -27 12 -2 6 -30 12 -63 14 -44 2
-56 0 -45 -7 11 -8 7 -9 -18 -5 -24 4 -34 2 -39 -10 -3 -8 -12 -13 -19 -10
-19 7 -67 -11 -60 -23 3 -5 -1 -15 -10 -22 -11 -9 -17 -10 -23 -1 -4 6 -12 8
-20 3 -9 -6 -5 -10 13 -15 24 -6 25 -8 12 -21 -19 -20 -44 -19 -48 1 -3 14 -7
13 -30 -6 -16 -12 -28 -25 -28 -29 0 -4 16 -16 35 -27 19 -10 35 -22 35 -27 0
-9 -56 19 -65 33 -3 5 -17 10 -30 10 -40 0 -55 11 -80 59 -47 93 -124 133
-191 98 -43 -22 -62 -47 -84 -113 -17 -48 -33 -71 -85 -119 -67 -63 -81 -93
-71 -149 9 -49 42 -85 102 -112 29 -13 55 -27 58 -32 3 -5 -10 -26 -28 -47
-19 -21 -32 -44 -29 -52 5 -12 -8 -18 -30 -14 -4 1 -14 -5 -22 -12 -10 -11
-11 -17 -2 -26 9 -9 9 -14 -2 -20 -17 -11 -13 -12 -173 51 -100 40 -128 55
-128 69 0 11 -5 19 -11 19 -5 0 -7 5 -4 10 4 6 10 8 15 5 5 -3 12 0 16 6 4 8
3 9 -4 5 -7 -4 -12 -1 -12 8 0 8 5 18 10 21 16 10 12 35 -5 29 -10 -4 -15 0
-15 15 0 23 10 27 27 10 8 -8 14 -5 23 10 6 12 15 19 21 16 5 -4 9 -3 8 2 -1
4 1 15 5 25 4 9 0 37 -8 62 -15 44 -13 76 5 76 5 0 7 -11 3 -25 -4 -15 -2 -25
5 -25 6 0 11 9 11 21 0 11 4 18 9 14 5 -3 12 -1 16 5 3 5 -3 11 -14 11 -108 7
-112 6 -109 -31 1 -16 5 -27 10 -24 12 8 29 -34 24 -62 -7 -39 -22 -50 -42
-33 -16 13 -17 12 -10 -6 6 -16 5 -18 -5 -7 -10 9 -10 15 -1 24 15 15 16 55 1
64 -6 3 -8 15 -5 27 6 26 -7 10 -22 -26 -8 -19 -9 -26 -1 -21 7 4 10 -1 7 -12
-2 -11 -7 -18 -12 -16 -8 4 -67 -79 -79 -110 -4 -13 -1 -18 11 -19 13 0 14 -2
2 -6 -8 -2 -25 -9 -36 -15 -25 -12 -224 19 -284 44 l-35 15 85 27 c47 15 120
30 163 33 42 3 77 9 77 13 0 4 -30 23 -67 43 -162 84 -336 124 -491 112 l-93
-6 -12 30 c-6 17 -18 32 -27 35 -11 3 -10 4 4 5 17 1 18 8 12 99 -16 260 -17
262 -46 292 -16 16 -31 26 -34 23 -3 -4 -6 -1 -6 6 0 6 7 14 15 17 21 8 8 24
-18 23 -21 0 -21 -1 -2 -8z m38 -120 c3 -13 1 -18 -9 -14 -7 2 -10 11 -7 19 7
19 10 18 16 -5z m-1333 -56 c-7 -8 -17 -15 -22 -15 -6 0 -5 7 2 15 7 8 17 15
22 15 6 0 5 -7 -2 -15z m-137 -88 c1 -29 4 -33 22 -29 19 5 19 4 3 -15 -10
-11 -18 -26 -18 -34 -1 -10 -5 -8 -15 5 -18 24 -22 137 -4 119 6 -6 12 -27 12
-46z m1372 1 c14 3 13 -20 -1 -25 -12 -4 -24 29 -23 62 1 12 4 8 8 -10 3 -16
11 -29 16 -27z m85 15 c0 -41 -14 -72 -26 -60 -4 4 -2 13 4 19 7 7 12 27 12
45 0 18 2 33 5 33 3 0 5 -17 5 -37z m30 -83 c0 -22 -2 -40 -4 -40 -2 0 -6 18
-8 40 -2 22 0 40 4 40 5 0 8 -18 8 -40z m1833 3 c-7 -2 -19 -2 -25 0 -7 3 -2
5 12 5 14 0 19 -2 13 -5z m-3094 -51 c-1 -17 -3 -21 -6 -9 -2 9 -11 17 -19 17
-17 0 -19 17 -1 23 19 7 27 -2 26 -31z m-199 -8 c0 -8 -4 -12 -10 -9 -5 3 -10
10 -10 16 0 5 5 9 10 9 6 0 10 -7 10 -16z m2901 -6 c10 -13 18 -28 19 -33 1
-27 68 -89 131 -121 65 -32 69 -36 56 -54 -7 -11 -33 -35 -56 -53 -44 -35 -81
-83 -81 -105 0 -21 -31 -82 -42 -82 -5 0 -23 23 -40 50 -30 48 -75 83 -170
130 -16 7 -28 20 -28 29 0 9 29 39 65 68 52 43 66 60 75 95 16 63 31 98 42 98
5 0 18 -10 29 -22z m490 15 c-19 -3 -45 -11 -57 -20 -21 -13 -24 -13 -24 -1 0
24 11 28 64 26 39 -1 43 -2 17 -5z m-91 -23 c0 -5 -2 -10 -4 -10 -3 0 -8 5
-11 10 -3 6 -1 10 4 10 6 0 11 -4 11 -10z m282 -94 c-4 -32 -2 -37 9 -31 12 8
12 6 0 -8 -9 -12 -11 -31 -7 -64 4 -32 3 -41 -3 -27 -5 11 -12 55 -16 97 -5
52 -12 77 -20 77 -14 0 -27 35 -17 45 3 3 18 -7 33 -22 22 -23 25 -34 21 -67z
m1177 13 c-16 -10 -23 -4 -14 10 3 6 11 8 17 5 6 -4 5 -9 -3 -15z m-4623 -16
c-10 -10 -19 5 -10 18 6 11 8 11 12 0 2 -7 1 -15 -2 -18z m3097 -23 c3 -11 1
-18 -4 -14 -5 3 -9 12 -9 20 0 20 7 17 13 -6z m69 -24 c-7 -13 -21 16 -14 32
4 13 7 12 12 -4 4 -10 5 -23 2 -28z m1478 35 c0 -5 -7 -11 -15 -15 -9 -3 -15
0 -15 9 0 8 7 15 15 15 8 0 15 -4 15 -9z m-1170 -62 c0 -5 -4 -9 -10 -9 -5 0
-10 7 -10 16 0 8 5 12 10 9 6 -3 10 -10 10 -16z m-3270 -32 c0 -4 -7 -2 -15 7
-8 8 -15 21 -15 28 1 14 30 -20 30 -35z m3004 -3 c3 -8 2 -12 -4 -9 -6 3 -10
10 -10 16 0 14 7 11 14 -7z m-3029 -4 c3 -5 1 -10 -4 -10 -6 0 -11 5 -11 10 0
6 2 10 4 10 3 0 8 -4 11 -10z m3743 -10 c1 0 11 -15 22 -32 33 -54 24 -139
-26 -270 -10 -27 -21 -48 -24 -48 -3 0 -4 36 -2 79 l3 80 -30 -9 c-21 -6 -31
-5 -34 3 -6 17 -56 -82 -102 -203 -36 -93 -45 -107 -75 -122 -53 -27 -94 -23
-156 17 -63 40 -70 41 -104 15 -14 -11 -30 -20 -37 -20 -6 0 -13 -5 -15 -12
-3 -8 -23 -1 -60 20 -30 17 -72 35 -94 40 -36 8 -39 11 -37 41 2 47 45 105 95
130 85 40 166 23 298 -64 l82 -54 -7 79 c-5 59 -3 92 9 133 37 129 168 231
261 205 16 -4 31 -8 33 -8z m-4528 -1 c0 -8 5 -7 15 1 20 16 21 14 30 -39 7
-41 6 -44 -14 -38 -11 3 -21 1 -21 -4 0 -5 5 -9 10 -9 6 0 10 -5 10 -11 0 -6
-7 -9 -15 -5 -9 3 -15 0 -15 -9 0 -8 5 -15 10 -15 6 0 9 -10 9 -22 -1 -20 -2
-20 -6 -4 -5 17 -7 16 -27 -8 -23 -29 -97 -48 -110 -28 -4 6 14 48 39 93 25
45 45 88 45 95 0 8 9 14 20 14 11 0 20 -5 20 -11z m550 -19 c0 -16 -4 -30 -10
-30 -5 0 -10 14 -10 30 0 17 5 30 10 30 6 0 10 -13 10 -30z m4685 20 c-16 -4
-24 -8 -16 -9 8 0 12 -3 9 -6 -7 -8 -38 5 -38 16 0 5 17 8 38 8 37 -1 37 -1 7
-9z m95 -20 c0 -5 -8 -10 -17 -10 -15 0 -16 2 -3 10 19 12 20 12 20 0z m-330
-31 c0 -5 -4 -9 -10 -9 -5 0 -10 7 -10 16 0 8 5 12 10 9 6 -3 10 -10 10 -16z
m-4390 -4 c0 -8 -7 -15 -16 -15 -14 0 -14 3 -4 15 7 8 14 15 16 15 2 0 4 -7 4
-15z m4543 -10 c-7 -21 -13 -19 -13 6 0 11 4 18 10 14 5 -3 7 -12 3 -20z m47
0 c0 -1 -6 -7 -13 -13 -10 -8 -13 -6 -13 7 0 11 6 17 13 14 7 -3 13 -6 13 -8z
m-4353 -19 c-7 -21 -37 -19 -37 2 0 15 5 19 20 15 12 -3 19 -11 17 -17z m-727
-5 c-20 -39 -47 -40 -35 -2 3 12 15 21 26 21 16 0 18 -3 9 -19z m4784 4 c-4
-8 -8 -15 -10 -15 -2 0 -4 7 -4 15 0 8 4 15 10 15 5 0 7 -7 4 -15z m209 -24
c-4 -4 -11 -10 -14 -14 -4 -5 -6 3 -5 16 1 20 4 23 14 15 7 -6 9 -14 5 -17z
m-4956 -7 c-3 -3 -12 -4 -19 -1 -8 3 -5 6 6 6 11 1 17 -2 13 -5z m4769 -21
c-10 -10 -19 5 -10 18 6 11 8 11 12 0 2 -7 1 -15 -2 -18z m-4876 -28 c0 -5 -5
-3 -10 5 -5 8 -10 20 -10 25 0 6 5 3 10 -5 5 -8 10 -19 10 -25z m-749 -20 c44
-41 53 -45 99 -45 64 0 72 -17 38 -79 -16 -29 -26 -61 -26 -87 1 -55 -6 -64
-51 -64 -22 0 -44 -6 -51 -15 -15 -19 -30 -19 -30 -2 0 22 -44 56 -80 63 -83
16 -88 36 -26 105 35 39 45 58 50 101 7 53 12 68 23 68 3 0 28 -20 54 -45z
m2725 26 c18 -10 18 -10 -3 -11 -15 0 -36 -19 -68 -64 -75 -105 -88 -144 -91
-276 -3 -94 -1 -112 9 -96 54 84 161 153 283 182 83 19 255 14 378 -11 119
-25 275 -79 389 -134 105 -51 263 -148 255 -157 -7 -6 -151 27 -165 38 -7 5
-17 7 -23 3 -6 -4 -9 -1 -8 7 2 8 -5 12 -21 10 -15 -2 -21 0 -17 7 4 6 0 11
-9 11 -9 0 -27 7 -40 16 -13 9 -29 13 -35 9 -16 -10 -12 -22 12 -28 29 -8 22
-14 -24 -21 -30 -5 -38 -3 -38 9 0 8 4 15 8 15 5 0 9 7 9 15 0 9 -14 17 -34
21 -34 6 -43 19 -20 27 6 2 -6 8 -28 11 -22 4 -50 12 -62 18 -12 6 -35 8 -52
6 -17 -2 -32 0 -34 5 -1 5 -18 9 -37 10 -30 2 -35 -1 -32 -18 2 -18 -3 -20
-65 -20 -38 -1 -83 -5 -100 -9 -29 -8 -33 -6 -33 12 0 13 -8 21 -25 24 -13 3
-22 1 -19 -3 3 -5 -8 -9 -24 -9 -36 0 -94 -23 -111 -44 -7 -9 -17 -14 -21 -11
-13 8 -80 -35 -80 -52 0 -8 -4 -12 -9 -9 -5 3 -14 -1 -21 -9 -7 -8 -10 -15 -6
-15 3 0 -3 -9 -14 -20 -24 -24 -28 -49 -4 -29 14 11 16 10 13 -11 -1 -14 2
-33 6 -44 4 -10 8 -31 9 -46 1 -35 26 -28 26 8 0 20 3 23 11 15 9 -9 8 -18 -5
-38 -17 -26 -17 -26 4 -15 25 13 41 4 20 -11 -12 -9 -12 -10 3 -5 10 3 28 6
40 6 18 0 19 2 7 10 -12 8 -10 10 10 11 14 1 59 4 100 7 115 8 295 6 298 -4 2
-5 20 -14 40 -20 30 -8 39 -7 49 5 10 14 11 13 6 -6 -4 -18 -1 -23 15 -23 19
0 18 -4 -14 -67 -79 -155 -67 -327 30 -463 20 -28 36 -53 36 -56 0 -3 -13 -16
-29 -30 -42 -35 -99 -125 -122 -192 -12 -34 -21 -88 -22 -134 -2 -76 -10 -91
-35 -66 -6 6 -25 11 -42 10 -17 0 -28 3 -25 8 3 5 -8 16 -24 25 -20 10 -32 12
-36 4 -4 -6 -13 -8 -21 -5 -16 6 -17 4 -8 -18 3 -9 13 -16 21 -16 8 0 11 -5 8
-11 -4 -5 6 -22 22 -36 15 -15 28 -30 28 -34 0 -4 30 -36 68 -71 37 -35 67
-67 67 -70 0 -3 -39 -31 -87 -61 -49 -31 -100 -67 -115 -81 -15 -15 -31 -26
-36 -26 -16 0 -204 198 -273 287 -76 99 -111 158 -167 283 -10 23 -11 20 -11
-26 -2 -114 -14 -238 -22 -219 -6 14 -7 9 -4 -15 3 -19 1 -51 -4 -70 -6 -22
-10 -28 -11 -15 -3 30 -28 -81 -40 -177 -19 -155 -22 -203 -10 -228 10 -24 10
-24 6 6 -3 17 -1 44 4 60 7 24 8 18 8 -31 0 -33 -3 -71 -7 -85 -7 -22 -8 -20
-14 18 -4 23 -12 42 -17 42 -13 0 -13 -23 0 -36 6 -6 7 -31 1 -69 -5 -33 -9
-50 -10 -37 0 12 -7 22 -16 22 -8 0 -15 3 -15 8 0 4 -15 13 -32 20 -98 40
-117 49 -157 74 -25 15 -47 26 -49 23 -3 -3 15 -35 40 -72 99 -149 157 -240
177 -280 12 -24 26 -43 31 -43 5 0 7 -6 4 -14 -5 -14 23 -77 62 -135 40 -60
16 -64 -139 -25 -232 58 -452 180 -590 327 l-49 52 28 -45 c60 -99 143 -200
253 -310 63 -63 114 -118 113 -121 0 -3 5 -6 11 -6 14 0 69 -34 64 -39 -20
-21 -211 101 -312 199 -41 40 -75 72 -75 70 0 -2 -6 2 -14 9 -8 7 -11 17 -8
22 3 5 0 6 -7 2 -6 -4 -22 5 -37 23 -14 17 -31 28 -36 24 -6 -3 -8 -1 -5 4 4
6 -2 18 -13 28 -11 10 -20 15 -20 11 0 -4 -6 -1 -14 6 -7 7 -11 19 -8 27 3 9
1 12 -6 7 -6 -4 -17 2 -24 14 -7 11 -19 20 -26 20 -9 0 -10 -4 -2 -12 5 -7 24
-29 40 -48 16 -19 30 -39 30 -44 0 -4 7 -5 16 -2 9 3 12 2 8 -5 -3 -6 2 -20
13 -32 10 -12 25 -31 33 -42 l15 -20 -24 20 c-13 11 -52 56 -87 100 -49 62
-60 82 -52 93 8 9 8 16 1 20 -5 4 -17 21 -26 37 -9 17 -16 24 -17 17 0 -7 7
-24 16 -38 9 -13 14 -27 10 -31 -3 -3 -6 -2 -6 4 0 5 -9 20 -20 33 -11 12 -17
26 -15 30 3 4 -1 10 -8 13 -7 3 -28 33 -46 67 l-33 62 31 -16 c32 -17 43 -33
15 -22 -9 3 -12 2 -9 -5 4 -6 14 -8 23 -4 9 3 38 -9 68 -30 30 -19 56 -35 59
-35 11 0 -38 108 -72 157 -39 58 -143 160 -192 189 -36 21 -35 19 -58 144 -25
138 -22 392 6 579 12 79 20 145 18 148 -12 11 -102 -180 -133 -282 -10 -33
-22 -63 -26 -66 -5 -3 -16 -21 -26 -40 -10 -19 -23 -43 -30 -54 -14 -23 -92
-194 -92 -201 0 -2 -9 -23 -19 -47 -11 -23 -27 -61 -37 -84 -10 -24 -20 -43
-23 -43 -3 0 -31 7 -61 15 -62 17 -146 20 -155 5 -3 -5 27 -31 68 -58 110 -75
108 -65 49 -185 -139 -281 -186 -495 -175 -801 l6 -170 -29 29 c-51 51 -124
156 -156 227 -18 37 -35 68 -39 68 -9 0 -23 -151 -20 -222 1 -32 -2 -58 -7
-58 -5 0 -1 -32 9 -72 11 -39 19 -83 19 -97 l0 -25 -31 30 c-18 16 -49 55 -70
87 -41 63 -119 251 -119 287 0 12 -4 19 -9 15 -5 -3 -12 -1 -16 5 -3 5 -2 10
3 10 7 0 5 289 -3 298 -7 8 -69 -35 -103 -72 -22 -24 -44 -41 -48 -38 -4 4 -4
-1 -1 -11 4 -10 3 -16 -2 -12 -16 9 -130 -126 -180 -214 -69 -119 -94 -193
-94 -266 l1 -60 -18 35 c-98 192 -102 515 -10 790 38 112 118 271 198 390 123
185 334 382 392 367 16 -4 21 3 31 52 34 167 128 337 253 461 36 35 64 66 62
67 -2 2 -28 -12 -57 -32 -62 -41 -518 -269 -525 -263 -8 9 113 168 200 263
213 232 734 619 1031 766 277 138 548 195 751 158 64 -11 184 -71 249 -123
103 -83 118 -88 69 -21 -56 77 -78 137 -79 216 0 68 3 79 28 112 32 42 88 74
162 94 57 14 203 11 231 -6z m-1936 -1 c0 -5 -2 -10 -4 -10 -3 0 -8 5 -11 10
-3 6 -1 10 4 10 6 0 11 -4 11 -10z m2653 -9 c-3 -11 -16 -21 -33 -23 -20 -3
-27 -1 -23 9 3 7 15 13 27 13 17 0 18 2 6 10 -12 8 -11 10 7 10 16 0 20 -5 16
-19z m2317 -2 c0 -14 -20 -11 -21 4 0 6 -4 3 -9 -8 -6 -15 -9 -16 -9 -4 -1 9
2 18 5 22 8 8 34 -3 34 -14z m343 -13 c48 -47 61 -105 54 -224 -4 -54 -15
-122 -24 -152 l-18 -55 -2 50 c-2 28 -6 70 -9 95 -5 36 -8 41 -15 25 -6 -17
-8 -17 -8 -2 -1 10 -9 17 -20 17 -23 0 -28 -41 -36 -280 -5 -176 -6 -190 -17
-184 -4 3 -8 -4 -8 -15 0 -20 -32 -37 -50 -26 -6 3 -10 -4 -10 -18 0 -40 -27
-41 -46 -2 -8 18 -22 36 -30 39 -8 3 -14 10 -14 16 0 6 5 8 11 4 7 -4 10 -1 7
7 -3 8 2 22 10 32 15 16 14 17 -2 11 -12 -5 -17 -2 -15 7 3 22 -12 49 -27 49
-16 0 -18 -11 -4 -28 7 -9 7 -9 -2 -2 -7 6 -16 10 -20 10 -13 0 -9 -55 5 -70
10 -12 9 -12 -5 -1 -27 20 -45 6 -50 -37 -2 -22 -1 -39 2 -37 3 1 15 -13 27
-32 13 -19 18 -31 13 -28 -6 3 -10 2 -10 -4 0 -5 6 -11 13 -14 9 -3 9 -7 -2
-20 -11 -14 -11 -18 3 -23 9 -3 22 -4 30 -1 8 3 21 -2 30 -12 14 -16 12 -21
-28 -66 -38 -43 -48 -49 -84 -50 -23 -1 -39 1 -37 3 2 2 -4 13 -14 23 -12 13
-24 17 -37 13 -12 -5 -7 5 15 26 l34 33 -29 -8 c-41 -11 -115 -12 -121 -1 -3
4 -9 2 -14 -5 -7 -11 -9 -10 -9 4 0 10 -8 18 -22 19 -13 1 -30 2 -38 4 -8 1
-19 2 -24 3 -10 1 17 46 50 82 l24 25 -29 41 c-16 22 -52 59 -80 83 l-51 43
18 29 c27 47 111 118 177 149 69 33 161 39 230 14 22 -8 41 -15 42 -15 1 0 -3
15 -8 32 -36 125 -31 227 16 317 26 52 87 115 125 130 53 21 97 13 133 -23z
m-4516 18 c-3 -3 -12 -4 -19 -1 -8 3 -5 6 6 6 11 1 17 -2 13 -5z m2973 -4 c-8
-5 -19 -10 -25 -10 -5 0 -3 5 5 10 8 5 20 10 25 10 6 0 3 -5 -5 -10z m-3680
-10 c0 -5 -4 -10 -10 -10 -5 0 -10 5 -10 10 0 6 5 10 10 10 6 0 10 -4 10 -10z
m3837 4 c-3 -3 -12 -4 -19 -1 -8 3 -5 6 6 6 11 1 17 -2 13 -5z m1061 -14 c-7
-10 -14 -17 -17 -15 -4 4 18 35 25 35 2 0 -1 -9 -8 -20z m-148 -15 c0 -9 -6
-12 -15 -9 -8 4 -12 10 -9 15 8 14 24 10 24 -6z m-4786 -10 c-4 -8 -8 -15 -10
-15 -2 0 -4 7 -4 15 0 8 4 15 10 15 5 0 7 -7 4 -15z m2599 8 c-7 -2 -19 -2
-25 0 -7 3 -2 5 12 5 14 0 19 -2 13 -5z m2267 -8 c0 -8 -4 -15 -9 -15 -13 0
-22 16 -14 24 11 11 23 6 23 -9z m-4350 -5 c13 -8 13 -10 -2 -10 -9 0 -23 -3
-32 -6 -11 -4 -16 -1 -16 10 0 18 27 21 50 6z m3067 -6 c-3 -3 -12 -4 -19 -1
-8 3 -5 6 6 6 11 1 17 -2 13 -5z m-4977 -23 c-23 -3 -24 -4 -5 -12 15 -7 13
-8 -10 -3 -16 3 -34 10 -40 16 -7 7 -3 8 13 3 12 -3 22 -2 22 3 0 6 10 7 23 4
22 -7 22 -7 -3 -11z m1065 1 c-3 -3 5 -12 17 -19 15 -8 18 -12 8 -13 -9 0 -21
5 -28 12 -15 15 -16 42 -1 33 6 -4 8 -10 4 -13z m3935 4 c0 -2 -8 -10 -17 -17
-16 -13 -17 -12 -4 4 13 16 21 21 21 13z m-5115 -16 c-11 -5 -27 -9 -35 -9
-13 -1 -13 0 0 9 8 5 24 9 35 9 l20 0 -20 -9z m1272 -20 c13 0 23 -5 23 -11 0
-13 -41 -2 -58 17 -7 9 -8 10 0 4 7 -6 22 -10 35 -10z m-1332 0 c-3 -5 -12
-10 -18 -10 -7 0 -6 4 3 10 19 12 23 12 15 0z m210 0 c3 -5 -1 -10 -10 -10 -9
0 -13 5 -10 10 3 6 8 10 10 10 2 0 7 -4 10 -10z m5968 -21 c48 -25 67 -51 67
-93 0 -46 -13 -75 -25 -56 -9 14 -45 -16 -45 -37 0 -22 -90 -113 -134 -135
-30 -15 -49 -18 -85 -13 -60 9 -101 31 -101 55 0 30 97 181 145 226 58 54 133
76 178 53z m-5941 -13 c7 5 8 2 3 -6 -6 -10 -4 -12 9 -7 10 4 15 3 11 -3 -3
-5 2 -22 11 -37 12 -19 6 -15 -19 12 -20 22 -36 45 -36 50 0 6 3 4 6 -3 2 -6
10 -9 15 -6z m4373 -16 c-8 -9 -12 -20 -9 -23 12 -12 -25 -19 -43 -8 -10 6
-12 11 -5 11 7 0 17 11 22 24 7 18 14 23 30 19 19 -5 19 -7 5 -23z m182 -22
c-17 -11 -29 -10 -22 2 3 6 1 10 -4 10 -6 0 -11 4 -11 9 0 5 11 4 24 -2 16 -8
21 -14 13 -19z m-4887 19 c0 -2 -18 -20 -39 -41 -27 -27 -38 -33 -35 -20 3 10
20 29 37 41 35 23 37 24 37 20z m4943 -14 c-7 -2 -19 -2 -25 0 -7 3 -2 5 12 5
14 0 19 -2 13 -5z m-174 -37 c-2 -2 -15 -6 -29 -10 -14 -3 -19 -3 -11 0 11 5
11 8 0 16 -11 8 -10 9 3 4 10 -3 21 0 25 6 5 9 8 9 11 -1 2 -7 2 -14 1 -15z
m116 5 c6 -11 -33 -26 -42 -17 -4 3 -1 6 6 6 7 0 9 5 6 10 -3 6 1 10 9 10 8 0
17 -4 21 -9z m45 -13 c0 -13 -23 -5 -28 10 -2 7 2 10 12 6 9 -3 16 -11 16 -16z
m43 5 c-7 -2 -19 -2 -25 0 -7 3 -2 5 12 5 14 0 19 -2 13 -5z m-4746 -45 c22
-24 77 -90 121 -148 88 -113 195 -250 353 -452 112 -143 209 -281 209 -296 0
-43 -45 -5 -143 117 -18 22 -81 101 -142 176 -236 293 -405 506 -421 531 -15
22 -19 23 -26 10 -14 -25 -92 -66 -124 -65 -28 1 -28 1 6 9 44 11 111 84 109
120 -3 53 4 53 58 -2z m177 26 c3 -8 2 -12 -4 -9 -6 3 -10 10 -10 16 0 14 7
11 14 -7z m4421 0 c22 -23 14 -27 -24 -11 -17 7 -28 16 -24 20 11 12 31 8 48
-9z m-4387 -44 c7 -11 11 -20 9 -20 -2 0 -12 9 -22 20 -10 11 -14 20 -9 20 5
0 15 -9 22 -20z m667 -19 c-1 -14 -3 -35 -4 -45 -2 -32 -15 -8 -18 33 -2 27 2
38 12 38 9 0 12 -9 10 -26z m55 19 c0 -5 -2 -10 -4 -10 -3 0 -8 5 -11 10 -3 6
-1 10 4 10 6 0 11 -4 11 -10z m-670 -65 c14 -19 14 -19 -2 -6 -10 7 -18 18
-18 24 0 6 1 8 3 6 1 -2 9 -13 17 -24z m725 5 c3 -5 2 -10 -4 -10 -5 0 -13 5
-16 10 -3 6 -2 10 4 10 5 0 13 -4 16 -10z m-115 -56 c0 -14 -4 -23 -10 -19 -5
3 -10 15 -10 26 0 10 5 19 10 19 6 0 10 -12 10 -26z m-515 -14 c3 -5 1 -10 -4
-10 -6 0 -11 5 -11 10 0 6 2 10 4 10 3 0 8 -4 11 -10z m485 -5 c0 -2 -9 -9
-20 -15 -12 -6 -20 -7 -20 -1 0 5 8 12 18 14 9 3 18 5 20 6 1 0 2 -1 2 -4z
m2745 -12 c41 -20 45 -33 9 -33 -14 0 -22 4 -19 10 3 5 -6 12 -20 16 -14 3
-25 10 -25 15 0 13 15 11 55 -8z m3331 9 c38 -26 33 -99 -13 -183 l-27 -50
-14 26 c-8 16 -11 38 -7 56 4 16 3 29 -2 29 -17 0 -55 -33 -93 -82 -47 -59
-51 -44 -15 56 43 117 74 154 135 155 14 0 30 -3 36 -7z m-6522 -67 c3 3 4 2
1 -2 -3 -3 7 -22 21 -42 21 -29 18 -28 -15 9 -23 25 -51 59 -62 75 -17 24 -15
23 14 -7 19 -21 37 -35 41 -33z m3509 40 c-5 -16 -33 -21 -33 -7 0 13 22 32
31 26 5 -2 6 -11 2 -19z m117 5 c13 -8 12 -10 -3 -10 -14 0 -17 -5 -12 -20 5
-15 3 -18 -10 -14 -10 4 -13 13 -10 25 5 15 -1 18 -32 22 -37 4 -37 4 7 5 25
1 52 -3 60 -8z m-309 -20 c16 0 29 -4 29 -10 0 -5 -18 -10 -40 -10 -43 0 -43
0 -33 26 4 11 8 13 11 6 2 -7 17 -12 33 -12z m1304 5 c83 -14 173 -84 213
-166 50 -104 49 -243 -2 -335 l-25 -45 37 8 c20 4 80 8 132 8 84 -1 101 -4
147 -28 100 -52 167 -148 168 -242 1 -112 -70 -251 -143 -282 -41 -17 -97 -19
-229 -8 -98 8 -125 -3 -58 -25 47 -15 131 -110 168 -188 27 -57 29 -71 25
-140 -14 -237 -238 -410 -452 -348 -31 9 -62 14 -68 10 -7 -4 -8 -3 -4 4 4 7
1 12 -7 12 -25 0 -98 72 -124 123 -32 65 -63 153 -63 183 0 40 -17 35 -39 -12
-53 -112 -172 -195 -291 -202 -134 -8 -211 37 -275 162 -25 48 -49 82 -62 87
-27 10 -46 47 -63 117 -33 143 49 291 191 345 24 9 84 22 133 29 49 7 87 17
85 23 -4 10 -58 31 -154 62 -68 22 -165 118 -188 187 -37 107 -8 218 77 301
76 75 113 90 221 90 98 0 140 -15 208 -75 l34 -30 7 69 c8 84 49 174 102 225
47 45 76 62 146 80 51 14 68 14 153 1z m-4582 -40 c-3 -9 -8 -14 -10 -11 -3 3
-2 9 2 15 9 16 15 13 8 -4z m427 -5 c0 -5 -7 -10 -16 -10 -8 0 -12 5 -9 10 3
6 10 10 16 10 5 0 9 -4 9 -10z m2527 4 c-3 -3 -12 -4 -19 -1 -8 3 -5 6 6 6 11
1 17 -2 13 -5z m-3884 -21 c-7 -2 -19 -2 -25 0 -7 3 -2 5 12 5 14 0 19 -2 13
-5z m4171 -38 c-4 -8 -8 -15 -10 -15 -2 0 -4 7 -4 15 0 8 4 15 10 15 5 0 7 -7
4 -15z m386 5 c0 -5 -4 -10 -9 -10 -6 0 -13 5 -16 10 -3 6 1 10 9 10 9 0 16
-4 16 -10z m110 6 c0 -2 -7 -7 -16 -10 -8 -3 -12 -2 -9 4 6 10 25 14 25 6z
m-587 -26 c-6 -23 -21 -25 -46 -5 -18 13 -16 14 15 18 18 2 34 5 35 5 0 1 -1
-7 -4 -18z m394 14 c-3 -3 -12 -4 -19 -1 -8 3 -5 6 6 6 11 1 17 -2 13 -5z
m223 -4 c-8 -5 -19 -10 -25 -10 -5 0 -3 5 5 10 8 5 20 10 25 10 6 0 3 -5 -5
-10z m-3708 -65 c11 -21 8 -18 -32 30 -24 29 -24 29 -2 10 13 -11 28 -29 34
-40z m3622 23 c-3 -5 -12 -4 -20 3 -19 16 -18 18 6 12 11 -3 17 -9 14 -15z
m-784 1 c0 8 3 12 6 8 3 -3 3 -15 -1 -28 -6 -17 -9 -19 -16 -8 -5 8 -9 21 -9
29 0 13 1 13 10 0 8 -12 10 -12 10 -1z m330 -18 c0 -18 -214 -29 -225 -11 -3
5 33 11 92 13 54 1 106 4 116 5 9 1 17 -2 17 -7z m-4387 -16 c-3 -9 -8 -14
-10 -11 -3 3 -2 9 2 15 9 16 15 13 8 -4z m1294 9 c-3 -3 -12 -4 -19 -1 -8 3
-5 6 6 6 11 1 17 -2 13 -5z m3216 -1 c-7 -2 -19 -2 -25 0 -7 3 -2 5 12 5 14 0
19 -2 13 -5z m1797 -4 c100 -12 198 -51 286 -114 35 -25 65 -49 68 -54 3 -4
-19 -34 -49 -65 -35 -38 -52 -63 -48 -74 4 -10 2 -13 -5 -8 -7 4 -12 2 -12 -3
0 -6 -7 -11 -15 -11 -8 0 -14 -5 -12 -11 1 -6 -4 -14 -12 -17 -9 -3 -11 0 -6
8 6 9 3 9 -15 0 -19 -10 -24 -10 -31 2 -5 8 -34 35 -66 59 -32 23 -62 46 -66
49 -4 4 22 21 58 39 36 17 63 36 60 41 -12 19 -95 10 -156 -16 -55 -23 -66
-24 -114 -14 l-53 11 -5 67 c-3 37 -7 76 -9 87 -3 20 12 25 102 33 9 1 53 -3
100 -9z m-5669 -350 c184 -188 414 -423 512 -523 97 -99 177 -184 177 -189 0
-38 -53 7 -296 250 -148 147 -371 366 -495 485 l-226 217 -34 -35 c-30 -32
-96 -74 -116 -74 -4 0 13 13 38 29 53 33 83 88 81 144 0 24 3 37 12 37 7 0
163 -154 347 -341z m-640 298 c-10 -9 -11 -8 -5 6 3 10 9 15 12 12 3 -3 0 -11
-7 -18z m1359 14 c0 -5 -7 -11 -15 -15 -9 -3 -15 0 -15 9 0 8 7 15 15 15 8 0
15 -4 15 -9z m6472 -8 c37 -33 9 -106 -52 -138 -33 -17 -65 -20 -37 -4 9 5 17
16 17 24 0 22 -79 24 -116 3 -31 -18 -64 -16 -64 3 0 31 158 129 208 129 14 0
34 -7 44 -17z m-6519 -49 c11 -14 17 -27 15 -30 -3 -2 -14 10 -27 26 -12 17
-18 30 -14 30 4 0 16 -12 26 -26z m167 -26 c0 -4 -9 -8 -21 -8 -11 0 -18 4
-14 9 3 5 0 13 -6 17 -8 4 -7 9 2 15 13 8 39 -14 39 -33z m30 -28 c0 -5 -2
-10 -4 -10 -3 0 -8 5 -11 10 -3 6 -1 10 4 10 6 0 11 -4 11 -10z m-100 -14 c-7
-7 -13 -7 -20 0 -6 6 -3 10 10 10 13 0 16 -4 10 -10z m6075 -12 c25 -10 48
-62 40 -93 -24 -98 -145 -92 -145 8 0 67 48 106 105 85z m-278 -26 c-3 -8 -6
-5 -6 6 -1 11 2 17 5 13 3 -3 4 -12 1 -19z m-5779 -53 c-3 -3 -9 2 -12 12 -6
14 -5 15 5 6 7 -7 10 -15 7 -18z m70 0 c-3 -3 -9 2 -12 12 -6 14 -5 15 5 6 7
-7 10 -15 7 -18z m6207 -53 c113 -3 184 -23 224 -63 40 -40 48 -72 28 -115
-16 -32 -37 -46 -37 -24 0 6 -12 10 -27 10 -57 1 -297 101 -308 128 -7 18 15
88 24 76 3 -5 47 -10 96 -12z m-193 -132 c-4 -17 21 -32 29 -18 4 7 11 2 18
-11 7 -12 16 -19 22 -16 5 4 12 -1 15 -10 5 -11 9 -13 14 -5 11 18 88 -106 95
-154 5 -34 2 -53 -16 -87 -46 -91 -99 -93 -148 -6 l-20 36 28 -5 c16 -4 32 -1
35 5 4 7 -1 11 -13 11 -19 0 -71 52 -71 71 0 6 -4 8 -9 5 -12 -8 -35 50 -27
70 8 21 -4 65 -15 58 -5 -3 -9 0 -9 5 0 6 6 11 13 12 10 0 10 2 0 6 -25 9 -14
41 15 46 36 5 48 2 44 -13z m-731 -9 c72 -24 152 -65 169 -86 13 -15 8 -23
-43 -71 -31 -30 -57 -58 -57 -63 0 -12 -35 -24 -80 -27 -19 -2 -51 -4 -72 -6
-21 -2 -34 1 -30 6 3 5 -2 7 -11 3 -21 -8 -21 -4 -2 33 9 17 12 30 8 30 -5 0
16 22 46 49 l53 49 -36 12 c-20 6 -50 9 -66 5 -35 -8 -35 -8 -14 45 14 35 20
40 49 40 17 0 56 -8 86 -19z m378 -99 c22 -5 62 -55 56 -71 -3 -9 0 -11 10 -7
25 9 45 -5 45 -31 0 -13 4 -21 10 -18 6 3 10 -4 10 -17 0 -19 2 -20 11 -8 8
12 9 10 4 -7 -3 -12 1 -35 10 -53 10 -20 12 -30 4 -30 -7 0 -9 -12 -5 -37 9
-50 9 -63 0 -97 -5 -22 -4 -27 6 -21 9 5 11 4 6 -4 -12 -18 -26 -2 -26 29 0
29 -34 65 -52 54 -5 -3 -2 11 7 33 9 21 20 40 25 41 27 10 4 20 -40 19 -39 -2
-49 1 -45 12 4 11 1 11 -18 -1 -12 -9 -43 -18 -67 -22 -34 -4 -39 -4 -22 4 23
10 29 25 12 35 -6 4 -7 -1 -3 -12 6 -17 5 -17 -16 -3 -12 8 -22 17 -21 20 1 3
-4 18 -10 34 -10 26 -6 35 37 102 26 40 50 69 53 66 3 -4 11 -8 19 -10z m-534
-32 c-3 -5 -12 -10 -18 -10 -7 0 -6 4 3 10 19 12 23 12 15 0z m135 -130 c-13
-8 -12 -10 5 -10 16 0 17 -2 6 -12 -11 -10 -14 -10 -18 0 -3 6 -12 12 -20 12
-11 0 -13 -3 -5 -12 7 -9 6 -17 -3 -25 -10 -9 -12 -6 -12 14 0 16 7 28 21 33
29 12 44 12 26 0z m-6230 -89 c0 -2 -9 4 -19 13 -11 10 -24 15 -30 11 -7 -3
-8 0 -5 9 4 9 0 18 -9 22 -9 3 -18 13 -22 22 -3 9 14 -3 39 -28 25 -24 46 -46
46 -49z m31 -28 c13 -17 13 -17 -6 -3 -11 8 -22 16 -24 17 -2 2 0 3 6 3 6 0
17 -8 24 -17z m6779 -90 c-10 -16 -11 -15 -6 7 3 14 7 39 8 55 1 26 2 25 5 -7
2 -21 -1 -46 -7 -55z m-6745 7 c3 -5 1 -10 -4 -10 -6 0 -11 5 -11 10 0 6 2 10
4 10 3 0 8 -4 11 -10z m6675 -3 c0 -7 -9 -13 -19 -14 -14 -1 -18 3 -14 13 6
17 33 19 33 1z m657 -9 c-3 -8 -6 -5 -6 6 -1 11 2 17 5 13 3 -3 4 -12 1 -19z
m-640 -20 c-3 -8 -6 -5 -6 6 -1 11 2 17 5 13 3 -3 4 -12 1 -19z m23 -39 c0 8
2 12 5 9 3 -3 3 -13 -1 -22 -6 -15 -7 -15 -20 1 -7 10 -14 22 -14 27 0 6 7 1
15 -10 10 -13 14 -15 15 -5z m-7433 -5 c-3 -3 -12 -4 -19 -1 -8 3 -5 6 6 6 11
1 17 -2 13 -5z m2580 -111 c-2 -16 -4 -5 -4 22 0 28 2 40 4 28 2 -13 2 -35 0
-50z m-2797 13 c0 -3 -4 -8 -10 -11 -5 -3 -10 -1 -10 4 0 6 5 11 10 11 6 0 10
-2 10 -4z m8150 -21 c48 -25 47 -64 -4 -128 -12 -16 -18 -17 -37 -7 -19 11
-24 10 -35 -5 -8 -10 -11 -21 -9 -25 6 -10 -20 -20 -51 -20 -31 0 -84 27 -84
42 0 7 -7 5 -17 -4 -27 -23 -49 -28 -63 -15 -10 9 -12 9 -8 -3 3 -8 9 -26 13
-40 l7 -25 -31 29 c-83 79 -53 196 51 196 22 0 48 -5 58 -10 14 -8 35 -5 77 9
70 25 95 26 133 6z m-7712 -4 c11 -7 11 -9 -1 -14 -9 -3 -18 1 -21 9 -6 16 2
18 22 5z m6332 -82 c41 -11 102 -33 135 -49 65 -31 150 -88 142 -96 -6 -7
-231 49 -238 58 -3 5 -22 9 -43 10 -20 1 -39 5 -42 10 -3 4 -13 8 -23 8 -23 0
-37 17 -46 53 -6 24 -4 27 17 27 13 0 57 -9 98 -21z m-6405 -172 c204 -175
661 -579 748 -660 46 -44 62 -87 37 -102 -8 -5 -241 189 -460 385 -47 41 -130
114 -185 161 -55 48 -155 134 -222 193 -68 58 -124 106 -127 106 -2 0 -15 -18
-30 -40 -27 -41 -79 -80 -106 -80 -8 0 -1 9 16 19 45 27 88 105 81 146 -14 83
28 62 248 -128z m229 144 c10 -10 13 -21 9 -24 -12 -8 -28 4 -36 26 -8 23 6
22 27 -2z m-38 -39 c-4 -3 -14 2 -24 12 -16 18 -16 18 6 6 13 -6 21 -14 18
-18z m3901 -40 c48 -66 41 -71 -11 -7 -21 25 -31 42 -23 39 8 -3 23 -17 34
-32z m3663 34 c0 -2 -8 -10 -17 -17 -16 -13 -17 -12 -4 4 13 16 21 21 21 13z
m-7520 -21 c7 -8 9 -15 6 -15 -4 0 -14 7 -22 15 -9 8 -11 15 -6 15 5 0 15 -7
22 -15z m146 -42 c-10 -10 -19 5 -10 18 6 11 8 11 12 0 2 -7 1 -15 -2 -18z
m119 9 c-3 -3 -11 0 -18 7 -9 10 -8 11 6 5 10 -3 15 -9 12 -12z m-225 -2 c8
-5 11 -10 5 -10 -5 0 -17 5 -25 10 -8 5 -10 10 -5 10 6 0 17 -5 25 -10z m280
-10 c8 -5 11 -10 5 -10 -5 0 -17 5 -25 10 -8 5 -10 10 -5 10 6 0 17 -5 25 -10z
m6826 -10 c45 -22 83 -71 103 -133 28 -83 9 -246 -25 -233 -8 3 -14 1 -14 -4
0 -5 -26 -22 -58 -38 l-58 -30 -49 192 c-30 120 -46 202 -42 218 12 48 75 60
143 28z m-3569 -42 c-3 -7 -5 -2 -5 12 0 14 2 19 5 13 2 -7 2 -19 0 -25z m387
-45 l58 -68 -61 63 c-55 56 -68 72 -58 72 2 0 29 -30 61 -67z m-3549 37 c-3
-5 -10 -10 -16 -10 -5 0 -9 5 -9 10 0 6 7 10 16 10 8 0 12 -4 9 -10z m7312
-43 c63 -69 42 -167 -73 -338 -36 -55 -64 -103 -60 -106 3 -4 35 -1 70 5 35 7
93 12 129 12 56 0 70 -4 96 -26 31 -26 44 -68 17 -58 -8 3 -16 -4 -20 -20 -3
-14 -23 -38 -43 -53 -51 -39 -131 -40 -188 -1 -51 35 -139 65 -214 74 l-59 6
63 62 c69 68 91 118 79 181 -8 43 -24 56 -24 20 0 -50 -147 -174 -297 -249
l-53 -26 67 82 c75 93 110 162 123 242 11 67 14 73 69 131 70 73 145 106 230
101 48 -3 58 -7 88 -39z m-7567 18 c7 -8 9 -15 6 -15 -4 0 -14 7 -22 15 -9 8
-11 15 -6 15 5 0 15 -7 22 -15z m6685 -35 c85 -36 139 -104 170 -213 27 -96
16 -96 -59 -3 -68 84 -103 114 -70 58 15 -27 15 -33 1 -83 -18 -59 -32 -71
-98 -89 -24 -7 -47 -17 -51 -24 -5 -6 -8 -2 -8 12 0 12 -5 22 -11 22 -5 0 -7
-5 -3 -12 4 -7 -6 -2 -24 10 -21 16 -29 28 -25 40 5 13 3 14 -6 6 -10 -9 -9
-18 4 -40 15 -26 14 -25 -14 5 -67 76 -99 197 -67 259 40 77 152 100 261 52z
m-4650 -10 c-4 -13 -1 -22 9 -26 9 -3 16 -13 16 -21 0 -8 4 -12 9 -9 7 5 15
-16 38 -99 4 -15 -3 -12 -30 14 -20 19 -33 39 -30 44 3 6 2 7 -3 4 -11 -6 -23
1 -42 25 -11 14 -10 22 10 52 26 41 32 45 23 16z m2265 -57 c57 -73 181 -192
195 -187 10 4 13 2 10 -8 -6 -16 40 -63 70 -72 11 -3 -20 -4 -70 -1 -49 2
-103 8 -120 14 -16 6 -46 12 -65 14 -19 3 -46 9 -60 14 -14 6 -32 13 -40 16
-12 4 -11 6 3 6 10 1 27 -4 38 -10 11 -5 27 -9 36 -7 9 2 -10 14 -43 27 -82
34 -175 94 -166 108 13 20 155 113 173 113 10 0 27 -12 39 -27z m-4173 -8 c0
-8 -4 -12 -9 -9 -5 3 -6 10 -3 15 9 13 12 11 12 -6z m3270 -17 c-3 -7 -5 -2
-5 12 0 14 2 19 5 13 2 -7 2 -19 0 -25z m314 -60 c24 -29 48 -56 54 -60 12 -9
11 -10 -67 -106 -32 -39 -58 -77 -58 -85 0 -21 62 -30 110 -17 22 6 46 8 52 4
7 -4 8 -3 4 4 -4 6 4 16 16 23 13 7 25 15 28 18 3 3 15 11 26 18 17 9 27 8 53
-8 17 -10 31 -24 31 -29 0 -6 3 -9 8 -6 4 2 23 -2 42 -10 l35 -15 -55 -23
c-93 -37 -193 -101 -268 -172 -40 -36 -75 -65 -77 -62 -2 2 -5 20 -6 39 -2 18
-6 39 -11 45 -13 18 -32 168 -24 189 6 16 9 17 16 5 7 -11 10 -2 10 30 1 25 7
92 14 150 8 58 12 108 9 113 -2 4 0 7 5 7 6 0 30 -24 53 -52z m-1776 -59 c-4
-6 -1 -9 7 -7 8 2 43 -16 78 -39 41 -26 82 -44 112 -48 49 -7 61 -17 96 -75
l20 -35 -190 0 c-153 0 -192 3 -196 14 -4 11 -6 11 -13 0 -6 -9 -9 -10 -9 -2
0 6 5 15 10 18 6 3 10 15 10 26 0 19 67 159 76 159 3 0 2 -5 -1 -11z m2694
-90 c14 -41 7 -36 -17 11 -11 23 -14 36 -7 30 8 -6 18 -24 24 -41z m420 -51
c39 -38 74 -68 77 -68 3 0 23 -13 43 -29 20 -15 47 -32 61 -36 29 -9 60 -41
60 -62 0 -8 -5 -23 -11 -34 -6 -11 -12 -28 -14 -37 -2 -9 -10 -37 -18 -62 -8
-25 -18 -61 -22 -80 -4 -19 -16 -52 -26 -73 -10 -21 -15 -46 -12 -55 3 -9 3
-14 -2 -10 -4 4 -30 -36 -58 -90 -82 -159 -86 -166 -113 -197 -19 -22 -24 -24
-19 -10 44 127 88 406 68 426 -6 6 -20 5 -37 -2 -37 -17 -45 -5 -57 81 -6 40
-19 95 -30 122 -26 66 -80 182 -88 188 -15 12 -35 43 -23 36 6 -4 12 -3 12 2
0 5 20 17 45 26 25 10 43 21 41 25 -3 4 8 7 24 6 21 0 46 -17 99 -67z m-1660
-5 c0 -25 -1 -26 -9 -8 -12 27 -12 35 0 35 6 0 10 -12 9 -27z m3195 -26 c14
-10 15 -14 4 -14 -7 0 -19 6 -26 14 -7 7 -9 13 -4 13 4 0 16 -6 26 -13z
m-1920 -28 c-16 -6 -15 -8 8 -8 21 -1 25 -5 21 -20 -3 -10 0 -22 6 -25 7 -5 9
0 5 11 -3 10 13 -16 35 -59 22 -42 42 -87 45 -100 2 -12 8 -32 12 -43 7 -18 6
-18 -8 -5 -8 9 -38 33 -66 54 -28 22 -48 44 -45 49 4 6 1 7 -6 3 -7 -5 -20 -1
-31 9 -22 19 -77 53 -102 61 -25 9 -22 18 10 32 15 6 47 23 72 36 24 13 49 22
54 18 5 -3 1 -9 -10 -13z m1991 -9 c7 -21 25 -28 25 -10 0 7 6 7 20 0 21 -11
50 -70 50 -100 0 -10 16 -28 37 -40 36 -21 37 -23 18 -36 -32 -23 -127 -55
-180 -61 l-50 -5 -33 54 c-18 29 -42 65 -54 80 -12 15 -18 31 -14 35 3 4 45 7
91 6 47 0 85 2 85 5 0 3 -11 20 -25 38 -31 41 -32 52 -3 24 14 -12 24 -16 26
-10 2 6 -4 18 -14 25 -17 13 -17 14 -2 15 9 0 20 -9 23 -20z m-4783 -84 l44
-44 -61 -66 c-59 -63 -102 -87 -88 -48 4 9 11 20 17 24 8 5 7 8 -1 8 -14 0 21
143 37 148 5 2 8 8 4 13 -12 20 5 7 48 -35z m-2470 3 c28 -37 67 -59 106 -59
16 0 37 -9 47 -20 18 -20 18 -21 -7 -48 -37 -38 -68 -93 -68 -119 0 -29 -10
-53 -22 -53 -6 0 -26 13 -44 30 -19 16 -53 34 -76 40 -88 22 -95 39 -39 104
32 37 41 56 46 101 8 64 23 70 57 24z m6840 -6 c67 -71 170 -216 158 -223 -7
-5 -6 -11 5 -20 8 -7 15 -9 15 -4 1 5 8 -3 16 -18 8 -16 18 -28 23 -28 4 0 13
-11 19 -25 16 -35 15 -43 -3 -19 -14 19 -14 19 -15 -2 0 -20 24 -40 43 -35 5
1 6 -3 2 -9 -4 -7 -17 -3 -36 11 -16 11 -26 25 -23 31 4 7 2 8 -4 4 -6 -4 -33
7 -59 24 -26 16 -45 30 -41 30 4 0 1 15 -7 33 -14 34 -10 77 6 77 5 0 9 -4 9
-10 0 -5 7 -10 17 -10 14 0 14 2 -2 20 -11 12 -26 18 -35 15 -12 -4 -27 8 -51
40 -19 25 -49 64 -66 86 -58 72 -34 97 29 32z m726 -40 c15 -29 62 -226 62
-260 0 -43 -27 -70 -78 -76 -39 -5 -44 -3 -57 23 -20 38 -19 72 5 188 30 140
45 169 68 125z m-7752 -7 c14 18 15 18 4 -3 -6 -13 -15 -23 -20 -23 -5 0 -14
10 -20 23 -11 21 -10 21 4 3 16 -20 16 -20 32 0z m5155 -56 c147 -50 296 -177
361 -311 47 -95 59 -148 59 -273 1 -162 -44 -321 -108 -388 -33 -35 -21 -36
19 -3 25 21 33 23 51 13 20 -10 21 -10 8 6 -12 14 -12 19 -1 29 10 10 11 9 6
-3 -4 -8 0 -6 8 4 9 11 16 14 16 7 0 -7 5 -9 10 -6 6 4 8 11 5 16 -7 11 36 50
90 80 l40 23 -16 -24 c-9 -14 -38 -63 -64 -110 -171 -300 -374 -580 -533 -733
l-71 -68 37 7 c109 19 181 37 232 58 32 12 56 18 53 12 -5 -13 -109 -99 -126
-105 -7 -2 -16 -10 -20 -18 -5 -8 -16 -11 -27 -8 -10 3 -21 1 -25 -4 -4 -7 1
-8 12 -4 37 13 -3 -15 -79 -55 -71 -38 -239 -98 -383 -137 -33 -9 -70 -21 -83
-26 -13 -5 -38 -9 -57 -9 -19 0 -36 -4 -39 -9 -8 -12 -135 -28 -333 -42 -236
-17 -490 2 -748 55 -186 38 -479 159 -634 261 -116 76 -221 186 -265 275 -63
130 -60 214 16 433 37 105 43 117 64 117 25 0 32 14 13 25 -6 4 -8 14 -5 22 3
8 2 12 -3 8 -26 -15 -104 196 -115 310 l-6 60 15 -35 c8 -19 18 -43 21 -52 4
-10 11 -18 16 -18 6 0 7 -7 4 -16 -3 -8 -2 -13 3 -10 4 3 27 -22 51 -54 47
-65 64 -76 53 -32 -13 49 -6 264 10 345 45 219 194 372 376 384 l66 5 -50 -30
c-55 -33 -119 -97 -159 -161 -97 -152 -130 -476 -71 -682 33 -116 108 -209
203 -252 69 -31 180 -30 247 3 172 83 285 347 285 667 0 73 6 84 32 61 7 -7
20 -15 28 -16 8 -2 53 -17 100 -32 92 -30 270 -61 493 -85 77 -8 145 -15 153
-15 9 0 14 -11 14 -27 0 -56 32 -210 56 -275 35 -92 49 -97 18 -7 -39 116 -46
106 107 164 13 5 20 -3 29 -32 27 -81 60 -132 107 -165 45 -31 53 -33 133 -33
101 0 151 22 194 83 32 46 66 132 66 166 l0 25 75 -26 c70 -23 75 -27 75 -54
0 -39 -46 -152 -86 -215 -42 -63 -95 -106 -182 -147 -58 -28 -78 -32 -147 -32
-99 0 -169 26 -244 90 -30 25 -56 44 -58 41 -9 -9 37 -74 74 -107 171 -150
469 -93 614 117 89 130 133 407 94 593 -39 186 -163 334 -323 386 -29 10 -52
20 -52 23 0 11 141 -8 201 -28z m3544 10 c-3 -5 -10 -10 -16 -10 -5 0 -9 5 -9
10 0 6 7 10 16 10 8 0 12 -4 9 -10z m-507 -20 c27 -16 33 -26 30 -47 -4 -33
-66 -73 -116 -73 -72 0 -123 54 -85 90 56 51 118 62 171 30z m521 -52 c1 -10
-3 -18 -9 -18 -5 0 -10 17 -9 38 0 30 2 33 9 17 5 -11 9 -28 9 -37z m-2394 8
c50 -38 67 -85 72 -200 9 -171 -27 -376 -94 -530 -19 -45 -50 -117 -69 -161
-18 -44 -34 -76 -34 -71 0 4 -9 -2 -19 -15 -19 -23 -20 -24 -28 -4 -4 11 -8
44 -8 72 0 29 -2 53 -5 53 -9 0 -100 -151 -100 -166 0 -8 -4 -13 -9 -9 -5 3
-12 -4 -16 -15 -3 -11 -10 -20 -15 -20 -4 0 -11 -7 -14 -16 -5 -14 -4 -15 8
-4 15 11 57 15 101 8 28 -4 67 -64 67 -103 0 -45 -28 -101 -64 -126 -24 -17
-38 -20 -86 -15 -81 8 -91 10 -90 16 3 14 -23 61 -31 56 -4 -3 -14 -20 -22
-38 -7 -18 -19 -39 -27 -47 -34 -34 -122 -151 -122 -161 0 -6 -5 -8 -12 -4 -7
4 -8 3 -4 -4 4 -7 -4 -22 -18 -36 -14 -13 -26 -30 -26 -37 0 -8 -12 -21 -28
-30 -16 -9 -86 -104 -174 -235 -149 -223 -198 -286 -278 -361 -41 -39 -157
-110 -165 -101 -2 1 27 28 64 59 134 113 244 259 403 538 117 205 236 399 323
526 34 50 65 97 70 105 5 8 -32 -23 -81 -70 -49 -47 -109 -101 -134 -121 -59
-48 -214 -150 -269 -179 l-45 -22 68 73 c192 210 373 482 522 784 113 231 166
370 199 522 16 74 21 83 49 97 47 24 104 20 141 -8z m-5695 -1 c11 -13 10 -14
-4 -9 -9 3 -16 10 -16 15 0 13 6 11 20 -6z m-753 -27 c-3 -8 -6 -5 -6 6 -1 11
2 17 5 13 3 -3 4 -12 1 -19z m3588 -18 c10 -11 16 -20 13 -20 -3 0 -13 9 -23
20 -10 11 -16 20 -13 20 3 0 13 -9 23 -20z m-2754 -27 l24 -26 -27 19 c-15 10
-28 22 -28 27 0 12 5 8 31 -20z m-787 -28 c3 -8 1 -15 -4 -15 -6 0 -10 7 -10
15 0 8 2 15 4 15 2 0 6 -7 10 -15z m3195 -31 c61 -51 65 -172 10 -259 -48 -76
-131 -97 -190 -48 -78 66 -76 191 4 273 61 63 127 76 176 34z m4464 -20 c2
-25 19 -73 36 -106 l30 -59 -37 -16 c-20 -8 -48 -25 -62 -38 l-25 -24 -29 95
-29 95 48 49 c27 28 52 50 56 50 3 0 9 -21 12 -46z m-6798 16 c16 -17 16 -20
3 -15 -9 4 -19 13 -22 21 -7 19 -2 18 19 -6z m6157 -14 c38 -47 55 -94 69
-188 11 -78 7 -274 -7 -356 -6 -30 -9 -26 -39 60 -18 51 -49 127 -70 168 -21
41 -49 98 -63 125 -32 64 -31 125 5 177 22 33 37 43 68 47 6 0 22 -14 37 -33z
m35 -8 c-3 -8 -6 -5 -6 6 -1 11 2 17 5 13 3 -3 4 -12 1 -19z m-1756 -44 c62
-31 107 -122 93 -187 -22 -103 -85 -152 -186 -145 -50 4 -63 9 -93 38 -43 42
-59 87 -53 157 10 124 130 192 239 137z m1576 -6 c-3 -7 -5 -2 -5 12 0 14 2
19 5 13 2 -7 2 -19 0 -25z m-190 -49 c7 -13 17 -23 23 -22 5 2 7 -4 4 -12 -4
-8 2 -39 11 -68 13 -36 18 -84 19 -157 0 -96 -3 -111 -31 -177 -47 -108 -126
-223 -153 -223 -6 0 -10 51 -10 123 0 67 -7 183 -16 257 -18 148 -23 251 -12
247 4 -1 22 12 40 29 64 60 95 61 125 3z m-5686 10 c8 -1 3 -4 -11 -8 -32 -10
-54 5 -37 24 10 12 14 11 23 -1 6 -8 17 -14 25 -15z m958 -2 c0 -21 -1 -21 -9
-2 -12 28 -12 37 0 30 6 -3 10 -16 9 -28z m2792 1 c15 -27 2 -57 -28 -64 -52
-13 -82 37 -44 75 23 23 56 18 72 -11z m-4311 -57 c0 -11 -59 -36 -67 -27 -3
3 1 6 11 6 9 0 19 7 22 15 7 16 34 21 34 6z m3136 -16 c52 -33 70 -143 34
-202 -63 -104 -195 -61 -208 67 -6 67 19 117 72 141 42 19 64 17 102 -6z
m5178 -28 c13 -36 -16 -69 -57 -65 -37 4 -52 26 -43 62 13 51 82 53 100 3z
m-6869 -89 c14 -46 35 -103 46 -127 12 -25 22 -59 23 -77 2 -17 7 -37 11 -44
9 -15 15 -73 7 -65 -8 8 -33 -48 -34 -77 -1 -15 -4 -25 -8 -23 -4 3 -11 -59
-15 -138 -7 -144 6 -354 27 -432 5 -22 12 -47 13 -55 29 -129 84 -278 129
-345 l20 -30 -28 25 c-109 97 -228 353 -257 550 -11 78 -8 256 6 320 10 47
-45 -80 -74 -173 -28 -85 -50 -191 -66 -310 -3 -26 -10 -45 -15 -42 -5 3 -10
-9 -12 -27 -4 -43 -20 -42 -35 2 l-12 35 0 -42 c-1 -24 -6 -43 -12 -43 -6 0
-8 -8 -5 -17 3 -10 8 -52 11 -93 6 -85 14 -131 25 -145 4 -5 10 -19 14 -30 16
-48 -35 34 -64 103 -145 343 -103 773 110 1143 35 60 159 238 167 239 1 0 14
-37 28 -82z m6285 21 c104 -23 162 -91 187 -218 15 -76 15 -88 0 -154 -12 -54
-14 -84 -7 -117 5 -25 9 -73 10 -107 0 -59 -2 -63 -22 -63 -35 -1 -103 -35
-122 -61 -9 -13 -16 -19 -16 -14 0 5 -7 0 -15 -11 -14 -18 -15 -17 -4 8 7 15
16 25 21 22 4 -3 11 9 15 26 3 18 13 34 22 38 9 3 19 10 23 16 10 14 10 38 1
33 -5 -3 -8 59 -8 138 0 136 -2 144 -23 162 -13 11 -25 36 -31 65 -17 95 -63
128 -176 128 -58 0 -65 2 -65 19 0 29 -17 35 -30 11 -6 -11 -20 -20 -30 -20
-11 0 -20 -4 -20 -10 0 -5 -6 -10 -12 -10 -24 0 -108 -65 -103 -79 3 -8 0 -11
-9 -8 -9 4 -17 -2 -21 -14 -4 -11 -9 -19 -11 -16 -2 2 -24 -16 -49 -40 -80
-77 -275 -158 -421 -177 -11 -1 -25 -5 -30 -9 -8 -4 -8 9 0 42 11 50 30 81 50
81 6 0 22 9 36 20 14 11 63 32 110 46 119 37 129 43 233 149 103 105 117 111
267 125 126 11 200 11 250 -1z m-7360 -54 c19 -10 30 -23 30 -37 0 -21 1 -21
28 5 34 33 79 47 149 47 45 0 54 -4 77 -31 l26 -31 20 25 c16 20 33 26 81 32
71 8 94 -5 105 -64 7 -32 6 -34 -17 -27 -98 29 -445 12 -606 -30 -126 -32
-195 -66 -260 -130 -47 -44 -53 -55 -53 -90 0 -49 19 -76 74 -109 24 -14 46
-35 49 -47 6 -20 6 -20 37 6 25 21 42 26 84 26 70 0 115 -17 127 -47 l9 -24
27 21 c34 24 113 40 204 40 108 0 216 19 323 55 55 19 101 33 103 32 6 -6 -56
-182 -64 -180 -4 1 -15 4 -24 8 -11 4 -21 -5 -34 -34 -23 -51 -81 -81 -159
-81 -47 0 -58 4 -85 31 -32 32 -31 32 -45 -15 -7 -21 -93 -46 -158 -46 -64 0
-112 19 -140 54 l-18 21 0 -27 c0 -35 -27 -43 -108 -34 -86 10 -157 33 -190
61 -34 29 -47 32 -38 9 5 -13 1 -14 -27 -9 -57 13 -125 54 -187 113 -49 47
-60 64 -60 90 0 30 7 37 38 33 16 -2 15 9 -3 33 -23 31 -19 90 9 123 20 23 32
27 72 28 43 0 49 3 52 23 4 23 52 65 90 77 13 4 34 0 51 -8 27 -14 30 -13 40
9 23 51 112 80 163 53 17 -9 24 -7 42 15 37 45 111 59 166 31z m2273 -131 c11
-110 69 -209 137 -232 41 -15 110 -15 147 -1 58 21 143 131 143 185 0 7 5 16
12 20 8 5 9 0 6 -14 -4 -12 -2 -22 3 -22 5 0 9 -8 9 -17 0 -10 4 -14 8 -8 4 6
17 10 30 11 16 0 21 -4 18 -15 -2 -9 -7 -34 -11 -56 -10 -62 -63 -151 -120
-203 -125 -114 -292 -109 -403 13 -92 101 -160 307 -117 355 10 11 22 17 26
14 5 -3 9 -1 9 4 0 13 40 31 71 31 25 1 26 -2 32 -65z m4365 34 c15 -15 16
-28 2 -28 -5 0 -10 7 -10 15 0 8 -5 15 -11 15 -6 0 -8 -8 -4 -19 5 -16 -1 -19
-42 -24 -27 -3 -49 -4 -51 -2 -6 6 73 55 88 55 9 0 21 -5 28 -12z m-6198 -38
c14 -4 18 -8 10 -9 -9 -1 -33 -10 -54 -20 -21 -11 -51 -23 -67 -26 -28 -6 -34
-15 -29 -44 1 -9 -4 -12 -15 -7 -13 4 -16 2 -11 -9 3 -8 0 -14 -7 -12 -6 1
-13 -8 -15 -21 -2 -15 -9 -22 -17 -18 -8 3 -22 -7 -33 -21 -18 -25 -20 -25
-69 -14 -59 14 -180 18 -208 7 -33 -13 88 98 139 128 88 52 173 75 266 75 47
-1 96 -5 110 -9z m-405 -18 c-140 -85 -366 -174 -365 -144 3 59 222 154 370
161 25 1 25 1 -5 -17z m2390 -6 c115 -19 164 -137 80 -192 -23 -15 -29 -15
-52 -3 -39 21 -85 70 -79 85 3 7 -3 15 -12 18 -22 7 -52 57 -52 86 0 24 2 24
115 6z m1863 -28 c9 -11 4 -14 -23 -16 -28 -2 -35 1 -35 16 0 10 3 22 6 25 8
7 36 -6 52 -25z m-1543 12 c3 -5 1 -10 -4 -10 -6 0 -11 5 -11 10 0 6 2 10 4
10 3 0 8 -4 11 -10z m1239 -22 c22 -35 31 -78 15 -78 -7 0 -9 -3 -6 -7 4 -3
16 3 27 15 26 28 65 38 95 24 15 -7 26 -7 33 0 5 5 19 7 31 3 16 -5 21 -14 20
-38 -2 -60 -13 -81 -49 -93 -48 -16 -73 -4 -143 64 -70 68 -96 110 -75 123 22
14 37 10 52 -13z m-3414 -5 c0 -7 -201 -120 -234 -132 -23 -9 18 30 67 62 99
66 167 94 167 70z m6710 -28 c11 -13 10 -14 -4 -9 -9 3 -16 10 -16 15 0 13 6
11 20 -6z m-7422 -38 c-29 -29 -89 -58 -110 -55 -21 4 -20 5 7 13 17 4 46 18
65 31 39 25 59 31 38 11z m7287 -40 c81 -42 209 -151 220 -188 4 -11 -3 -36
-17 -62 -23 -41 -25 -42 -75 -42 -46 1 -56 5 -119 57 -73 59 -179 120 -244
139 l-39 12 62 69 c59 65 64 68 97 62 19 -3 71 -24 115 -47z m182 1 c-3 -8 -6
-5 -6 6 -1 11 2 17 5 13 3 -3 4 -12 1 -19z m363 12 c0 -5 -5 -10 -11 -10 -5 0
-7 5 -4 10 3 6 8 10 11 10 2 0 4 -4 4 -10z m40 -63 c0 -16 -18 3 -23 25 -6 22
-5 22 8 4 8 -11 15 -24 15 -29z m44 -93 c3 -9 6 -23 6 -33 0 -29 -66 -155 -96
-183 l-29 -27 6 112 c4 62 7 113 8 114 22 34 94 46 105 17z m-978 -9 c-11 -8
-25 -15 -30 -15 -6 0 -2 7 8 15 11 8 25 15 30 15 6 0 2 -7 -8 -15z m130 -8
c92 -34 155 -77 112 -77 -9 0 -9 -3 0 -12 10 -10 15 -10 22 2 8 13 10 12 10
-2 0 -25 -31 -23 -66 4 -15 13 -25 17 -21 10 6 -8 3 -10 -7 -6 -9 3 -16 10
-16 14 0 5 -24 18 -52 29 -34 13 -45 20 -30 20 12 1 22 6 22 12 0 7 -15 10
-38 7 -25 -2 -39 1 -39 8 0 15 49 11 103 -9z m202 -144 c0 -13 -5 -23 -10 -23
-5 0 -6 5 -3 10 3 6 0 10 -7 10 -10 0 -10 2 1 9 11 7 9 11 -8 20 -11 7 -21 16
-21 22 0 5 11 2 24 -8 13 -10 24 -28 24 -40z m722 10 c-59 -184 -241 -410
-426 -528 -215 -138 -463 -155 -794 -54 -123 37 -338 125 -329 134 2 1 69 -19
149 -46 273 -92 403 -119 570 -120 225 -1 379 71 569 264 95 97 165 195 224
314 43 86 57 100 37 36z m-6273 -35 l63 -62 0 -74 c0 -66 -2 -73 -15 -62 -26
21 -133 260 -117 260 4 0 35 -28 69 -62z m5238 28 c44 -14 109 -42 144 -63 62
-36 161 -123 161 -140 0 -16 -116 -43 -183 -43 -92 0 -242 50 -308 103 -23 17
-74 39 -134 57 -53 16 -98 30 -100 32 -2 2 -5 16 -7 32 -3 28 0 30 47 42 32 8
96 12 175 10 101 -3 140 -9 205 -30z m-5499 -9 c27 -29 33 -91 11 -117 -23
-28 -66 -50 -100 -50 -44 0 -87 40 -88 84 -1 17 -2 46 -3 63 -1 25 3 33 16 33
9 0 20 5 24 11 4 7 27 10 61 7 42 -4 60 -11 79 -31z m6234 -94 c0 -29 15 -44
44 -46 14 -1 26 -5 26 -10 0 -4 0 -11 0 -17 0 -12 -120 -140 -132 -140 -5 0
-6 5 -3 10 10 16 -1 11 -16 -7 -12 -14 -12 -16 0 -8 10 6 12 4 7 -4 -5 -7 -15
-10 -24 -6 -9 3 -13 3 -9 -1 8 -8 -41 -64 -55 -64 -5 0 -26 -13 -46 -29 -39
-31 -107 -63 -115 -54 -3 3 -37 -2 -76 -11 -95 -22 -231 -19 -231 5 0 18 41
49 64 49 19 0 24 6 30 38 17 109 241 185 258 87 2 -15 12 -21 38 -23 18 -2 40
-11 47 -20 11 -15 12 -11 13 25 0 64 14 91 52 101 31 8 33 11 38 61 6 57 26
81 67 81 15 0 23 -6 23 -17z m100 -28 c-7 -9 -15 -13 -17 -11 -6 6 20 36 26
30 2 -2 -2 -10 -9 -19z m-1328 -100 c17 -20 17 -20 18 3 0 13 11 34 25 47 19
20 34 25 75 25 93 0 158 -53 174 -142 8 -43 10 -44 59 -23 72 30 141 11 177
-48 35 -57 20 -117 -28 -117 -16 0 -97 24 -182 54 -167 58 -195 69 -342 140
-104 50 -108 56 -70 114 l15 23 30 -28 c17 -15 39 -37 49 -48z m-5782 -3 c0
-46 -1 -48 -37 -61 -59 -21 -127 -67 -178 -122 -26 -28 -48 -49 -50 -47 -1 2
4 24 11 50 20 65 96 146 181 191 37 20 69 37 71 37 1 0 2 -22 2 -48z m660 12
c6 -7 10 -25 8 -41 -2 -22 -9 -29 -30 -31 -22 -3 -30 2 -38 23 -16 41 -4 73
25 67 14 -2 29 -10 35 -18z m-1302 -9 c-2 -1 -23 -5 -48 -8 l-45 -6 35 13 c19
7 41 11 48 8 7 -2 12 -6 10 -7z m-288 -50 c7 -9 15 -13 17 -11 7 7 63 -15 63
-25 0 -5 -11 -11 -25 -15 -43 -11 -116 30 -100 56 9 15 31 12 45 -5z m5515
-75 c12 -23 13 -34 3 -55 -11 -23 -48 -36 -48 -16 0 5 -9 12 -19 16 -18 6 -18
8 7 45 14 22 29 40 34 40 4 0 14 -13 23 -30z m-4590 -7 c3 -16 15 -64 26 -107
10 -43 18 -80 17 -81 -2 -1 -49 -25 -106 -54 -82 -41 -107 -49 -122 -41 -24
13 -60 63 -60 85 0 54 76 145 164 195 63 37 74 37 81 3z m-879 -52 c31 -19 82
-106 70 -118 -9 -9 -86 75 -86 93 0 8 -4 14 -9 14 -5 0 -11 7 -15 15 -7 20 3
19 40 -4z m6911 -257 c-3 -3 -12 -4 -19 -1 -8 3 -5 6 6 6 11 1 17 -2 13 -5z
m63 -20 c0 -2 -9 -4 -20 -4 -11 0 -20 4 -20 9 0 5 9 7 20 4 11 -3 20 -7 20 -9z
m37 -60 c-5 -5 -57 13 -57 20 0 3 14 0 31 -6 16 -6 28 -12 26 -14z m66 -11
c-7 -2 -19 -2 -25 0 -7 3 -2 5 12 5 14 0 19 -2 13 -5z m-5930 -92 c47 -41 44
-46 -76 -105 -116 -57 -248 -148 -318 -218 -21 -22 -43 -37 -49 -33 -5 3 -10
3 -10 -2 0 -10 -38 -32 -142 -85 -60 -30 -87 -38 -119 -36 l-40 3 49 70 c61
87 209 229 308 296 99 66 229 128 290 138 50 8 74 1 107 -28z m-293 19 c0 -5
-5 -10 -11 -10 -14 0 -119 -71 -199 -136 -62 -50 -205 -193 -281 -282 -35 -41
-38 -42 -96 -42 -45 0 -67 5 -85 20 -14 10 -29 16 -33 12 -4 -4 -5 8 -2 26 18
95 180 253 342 334 56 29 192 65 287 77 35 5 66 9 71 10 4 0 7 -3 7 -9z m6050
-14 c0 -11 -19 -15 -25 -6 -3 5 1 10 9 10 9 0 16 -2 16 -4z m-824 -61 c14 -9
31 -30 37 -46 13 -33 21 -35 57 -14 52 29 142 12 191 -37 27 -28 32 -30 40
-15 5 9 26 21 46 26 77 22 154 -25 175 -105 9 -34 16 -43 28 -38 63 25 130 11
176 -37 23 -24 29 -39 29 -74 0 -41 2 -45 38 -61 43 -20 77 -68 77 -110 0 -33
-32 -92 -55 -100 -20 -8 -19 -21 3 -26 27 -8 52 -69 52 -130 0 -68 -39 -149
-92 -191 -20 -16 -65 -37 -100 -47 l-63 -17 40 -12 c22 -6 49 -11 60 -11 26 0
96 32 117 53 15 16 16 11 11 -66 -2 -45 -11 -108 -19 -140 -8 -32 -14 -77 -14
-100 0 -70 -43 -267 -58 -267 -4 0 -16 18 -26 40 -10 22 -26 46 -35 54 -15 13
-16 7 -16 -67 0 -95 -17 -129 -89 -174 -43 -28 -122 -37 -158 -19 -13 6 -18 4
-18 -6 0 -8 -20 -42 -45 -76 -66 -91 -146 -136 -234 -131 -44 2 -53 0 -71 -24
-24 -31 -88 -51 -131 -42 -16 4 -43 18 -60 33 -27 22 -30 30 -25 62 8 53 -3
55 -34 6 -49 -76 -146 -106 -206 -62 -18 14 -18 15 6 63 28 55 32 138 10 188
-14 30 -14 30 -19 -31 -7 -72 -38 -123 -92 -153 -49 -28 -50 -27 -33 14 20 49
18 133 -5 178 -18 36 -18 37 1 76 11 22 25 69 31 105 16 94 -15 242 -79 374
-41 83 -61 111 -140 190 l-92 93 26 25 c15 13 47 31 72 39 l45 14 -50 0 c-38
1 -59 -5 -88 -25 l-38 -26 -34 23 c-19 13 -36 30 -40 39 -3 8 -16 33 -30 55
-14 22 -25 50 -25 63 0 13 -4 20 -10 17 -5 -3 -10 -26 -10 -51 0 -24 -5 -44
-11 -44 -20 0 -159 69 -159 79 0 17 43 41 73 41 l29 0 -30 35 c-73 82 -44 187
63 232 l45 18 0 51 c0 36 6 59 20 77 27 34 94 59 149 55 42 -3 45 -1 52 27 10
36 52 83 86 96 52 19 83 11 129 -35 46 -45 54 -47 54 -10 0 12 13 33 30 48 56
47 144 47 200 0 l30 -26 9 24 c21 55 135 74 197 33z m-5721 -13 c-6 -4 -35
-27 -66 -50 -147 -110 -248 -257 -236 -344 7 -55 32 -86 101 -127 36 -22 56
-40 56 -52 0 -23 8 -24 31 -3 26 24 116 29 181 10 49 -14 70 -15 157 -5 56 7
103 10 105 8 1 -2 1 -33 -2 -70 l-4 -65 -50 -18 c-28 -10 -69 -35 -93 -57 -51
-47 -84 -51 -114 -13 -25 31 -26 49 -7 86 8 15 12 37 9 49 -5 18 -11 12 -35
-36 -16 -32 -28 -73 -28 -95 0 -45 -9 -50 -89 -50 -72 0 -142 21 -203 59 -34
22 -45 35 -42 48 4 12 -5 24 -26 36 -63 37 -112 135 -95 188 6 17 13 20 36 15
32 -6 38 4 13 25 -29 24 -46 70 -40 105 8 38 60 87 85 79 13 -4 20 5 29 37 6
24 20 57 30 74 22 34 120 96 227 142 77 34 83 36 70 24z m1717 -29 c15 -7 35
-25 44 -39 l17 -25 26 25 c81 76 242 40 228 -51 l-6 -33 39 20 c22 11 53 20
70 20 71 0 139 -55 125 -100 -6 -20 -4 -21 37 -20 78 3 89 0 119 -29 23 -23
29 -38 29 -70 0 -39 1 -41 25 -35 44 11 27 -3 -61 -50 l-87 -46 -51 43 c-130
112 -313 217 -445 257 -62 19 -86 22 -159 16 -253 -21 -569 -108 -772 -212
-89 -46 -192 -121 -209 -152 -8 -15 12 -44 115 -167 68 -83 132 -166 141 -186
16 -33 23 -37 67 -42 107 -13 216 -119 216 -212 0 -27 14 -33 27 -11 38 69
233 56 272 -17 16 -30 33 -34 50 -13 17 20 138 73 210 92 68 17 142 14 168 -7
11 -9 17 -8 28 7 8 10 12 26 9 35 -2 9 3 25 13 35 21 20 124 69 169 78 l30 7
27 -123 c33 -149 33 -152 8 -138 -28 14 -31 13 -31 -15 0 -60 -85 -96 -138
-59 -20 14 -22 14 -22 -5 0 -29 -46 -78 -86 -91 -40 -14 -107 -8 -129 10 -11
9 -9 18 17 54 24 35 29 50 23 75 -8 39 -25 50 -25 17 0 -49 -97 -126 -160
-126 -10 0 -22 -5 -26 -11 -5 -8 14 -10 65 -7 39 2 71 0 71 -5 0 -5 -13 -21
-28 -37 -37 -36 -104 -50 -247 -50 -125 0 -230 17 -346 55 -149 50 -209 111
-209 212 l0 48 -16 -32 c-20 -40 -43 -44 -118 -19 -112 36 -209 163 -178 232
10 21 9 22 -23 13 -44 -12 -73 0 -117 49 -45 49 -62 100 -62 177 1 73 22 119
70 147 19 11 39 28 44 38 9 17 7 17 -20 7 -55 -21 -98 35 -69 89 19 37 74 62
99 46 27 -17 26 -17 50 33 31 64 82 90 166 82 60 -6 61 -6 56 18 -6 32 41 79
96 96 35 10 48 9 87 -6 26 -9 49 -23 52 -31 8 -22 20 -16 27 12 17 67 83 117
179 135 72 13 129 -1 170 -43 23 -22 32 -26 38 -16 5 7 9 16 9 20 0 14 51 41
88 48 44 8 87 2 124 -17z m2428 -108 c-27 -82 -104 -184 -164 -217 -24 -13
-19 -4 58 92 34 42 72 97 86 123 28 53 37 55 20 2z m-2277 -125 c37 -18 64
-36 60 -40 -4 -4 -54 -26 -111 -50 -176 -73 -345 -188 -499 -339 l-73 -71 -76
45 c-41 25 -81 45 -87 45 -6 0 -26 -15 -45 -32 -30 -30 -34 -31 -43 -15 -6 9
-15 15 -20 12 -5 -4 -6 -11 -3 -17 4 -7 2 -8 -5 -4 -6 4 -9 12 -5 17 3 6 -2
19 -12 30 -12 13 -13 19 -4 19 10 0 10 3 0 15 -14 17 0 21 17 4 7 -7 12 -6 16
5 4 10 1 16 -8 16 -8 0 -15 5 -15 11 0 8 -5 7 -15 -1 -9 -7 -18 -11 -20 -8 -9
9 127 149 203 209 117 94 239 143 429 174 138 22 234 15 316 -25z m2127 36 c0
-2 -8 -10 -17 -17 -16 -13 -17 -12 -4 4 13 16 21 21 21 13z m-50 -27 c10 -17
7 -25 -17 -51 -45 -48 -87 -88 -93 -88 -3 0 -18 18 -33 40 -16 22 -42 47 -58
55 -34 18 -37 25 -8 25 13 0 18 -4 13 -12 -5 -8 -2 -9 10 -5 10 4 15 3 11 -3
-3 -6 -2 -10 4 -10 5 0 11 10 13 23 2 18 9 22 43 23 22 0 47 3 55 7 8 3 22 8
30 10 8 3 16 6 17 6 1 1 7 -8 13 -20z m-559 -34 c19 -10 41 -14 63 -9 27 5 39
1 55 -15 12 -12 21 -28 21 -37 0 -13 7 -15 33 -10 39 7 48 1 76 -44 29 -49 27
-70 -15 -118 -43 -51 -86 -76 -102 -60 -6 6 -19 7 -29 3 -17 -7 -17 -8 2 -15
17 -6 15 -10 -20 -32 -22 -14 -50 -28 -62 -32 -71 -20 -66 -21 -58 16 l7 33
-31 -29 c-17 -17 -31 -36 -31 -43 0 -18 -79 -56 -181 -87 -96 -29 -146 -33
-175 -11 -24 18 -34 19 -34 0 0 -24 -41 -38 -111 -39 -53 -1 -71 3 -88 18 -22
20 -22 20 -28 -2 -5 -19 -12 -22 -59 -22 -80 0 -232 37 -284 68 -53 33 -76 72
-60 102 11 20 60 29 60 10 0 -5 7 -10 15 -10 11 0 15 11 15 41 0 58 31 103 92
133 29 14 57 26 63 26 6 0 48 16 93 35 96 40 244 81 322 89 41 4 29 -1 -50
-19 -210 -50 -347 -139 -370 -239 -6 -26 -3 -42 11 -65 18 -30 20 -31 99 -31
66 0 83 -3 99 -19 16 -16 22 -17 31 -6 6 8 37 17 68 20 31 4 101 15 154 26
118 23 164 24 172 4 8 -22 24 -18 28 7 2 17 21 27 100 54 95 31 149 60 176 92
18 23 15 73 -8 110 -21 35 -106 82 -147 82 -13 0 -23 4 -23 8 0 11 39 30 63
31 10 1 31 -6 48 -14z m3501 -47 c35 -24 67 -89 68 -133 0 -48 -28 -145 -60
-207 -17 -31 -30 -62 -30 -68 0 -6 23 5 52 24 95 64 214 71 302 17 38 -24 68
-72 49 -78 -7 -3 -13 -11 -13 -19 0 -8 -21 -36 -48 -62 -36 -37 -60 -52 -108
-65 -72 -20 -98 -21 -127 -5 -12 7 -35 13 -52 14 -50 2 -55 4 -55 15 0 6 9 9
20 6 22 -6 28 8 8 16 -7 3 15 6 49 6 107 2 148 36 84 72 -27 16 -49 16 -146 6
-33 -4 -46 40 -24 83 17 34 22 67 20 120 -1 20 -3 22 -11 10 -8 -12 -10 -12
-10 5 0 17 -2 17 -10 5 -8 -12 -10 -10 -10 8 0 32 -22 23 -32 -13 -7 -29 -26
-47 -39 -39 -4 2 -10 43 -14 92 -4 48 -14 99 -23 113 -19 34 -11 54 30 79 43
26 92 25 130 -2z m-5768 -26 c-25 -20 -93 -70 -183 -134 -69 -50 -116 -61
-128 -32 -8 21 19 42 130 100 73 38 176 81 197 83 3 0 -4 -7 -16 -17z m2156
-1 c28 -8 31 -7 -62 -31 -26 -7 -45 -16 -42 -21 3 -5 -6 -9 -20 -9 -16 0 -26
-6 -26 -14 0 -18 -15 -28 -44 -31 -34 -4 -36 -5 -36 -15 0 -5 6 -7 14 -4 22 8
39 -31 21 -46 -11 -10 -15 -10 -15 -1 0 8 -6 7 -16 -3 -20 -21 -72 -20 -95 0
-16 14 -22 14 -71 -1 -29 -9 -60 -19 -68 -22 -27 -10 43 58 105 102 74 52 117
74 175 91 50 13 141 16 180 5z m-1160 -47 c33 -25 73 -59 91 -76 l30 -31 -28
-18 c-15 -9 -80 -35 -143 -57 -63 -22 -142 -52 -175 -67 -33 -15 -73 -33 -90
-40 -16 -7 -55 -23 -85 -36 -30 -12 -98 -43 -151 -70 -105 -52 -120 -53 -209
-11 -19 9 -39 15 -43 14 -22 -6 54 75 127 137 150 127 321 226 481 277 105 34
125 31 195 -22z m805 18 c-6 -4 -28 -21 -50 -37 -57 -42 -57 -41 -96 -75 -20
-16 -41 -30 -47 -30 -5 0 -15 -7 -23 -16 -9 -11 -24 -14 -53 -11 -23 3 -47 0
-54 -5 -7 -6 -15 -8 -19 -4 -4 3 16 28 44 55 53 51 131 94 210 116 55 15 102
19 88 7z m455 -27 c0 -7 -141 -77 -147 -72 -5 6 51 41 98 61 36 16 49 19 49
11z m840 -68 c54 -28 82 -79 82 -145 0 -63 -33 -129 -69 -138 -26 -7 -26 -7
-5 -15 14 -5 23 -20 28 -44 5 -31 2 -42 -23 -73 -40 -50 -85 -70 -142 -64 -25
2 -54 9 -63 14 -12 5 -26 5 -39 -2 -32 -17 -66 -4 -120 47 -40 37 -49 52 -49
80 0 74 48 137 104 137 33 0 33 0 28 42 -2 24 -2 54 2 68 9 34 54 86 91 102
48 21 126 17 175 -9z m-520 -50 c0 -2 -15 -16 -32 -33 l-33 -29 29 33 c28 30
36 37 36 29z m3645 -38 c11 -17 -1 -21 -15 -4 -8 9 -8 15 -2 15 6 0 14 -5 17
-11z m40 -30 c-4 -5 -12 -9 -18 -8 -9 0 -8 2 1 6 6 2 9 10 6 15 -4 7 -2 8 5 4
6 -4 9 -12 6 -17z m-558 -21 c-3 -8 -6 -5 -6 6 -1 11 2 17 5 13 3 -3 4 -12 1
-19z m-16 -51 c-10 -9 -11 -8 -5 6 3 10 9 15 12 12 3 -3 0 -11 -7 -18z m-4791
-71 c0 -2 -7 -6 -15 -10 -8 -3 -15 -1 -15 4 0 6 7 10 15 10 8 0 15 -2 15 -4z
m1692 -74 c-2 -38 1 -91 7 -120 9 -45 8 -59 -14 -127 -47 -143 -166 -350 -258
-447 -6 -7 -18 -22 -26 -33 -7 -11 15 10 50 46 75 78 175 235 235 369 24 52
47 93 51 90 36 -23 -106 -312 -218 -445 -88 -104 -140 -138 -226 -148 -41 -5
-56 -2 -69 10 -25 25 -12 83 34 161 66 111 304 574 297 580 -5 5 -119 -75
-142 -100 -12 -13 -56 -93 -98 -178 -41 -85 -94 -186 -116 -224 -35 -58 -41
-77 -42 -132 -1 -35 -4 -64 -7 -64 -13 1 -49 40 -65 70 -22 43 -16 90 31 232
55 165 130 258 324 399 68 49 220 128 251 129 4 0 4 -31 1 -68z m841 39 c142
-49 330 -169 396 -252 24 -31 37 -129 17 -129 -15 0 -10 -46 6 -67 5 -7 7 -16
4 -21 -3 -5 -10 -40 -16 -78 -17 -106 -66 -195 -173 -314 -128 -143 -163 -187
-200 -250 -36 -60 -63 -158 -48 -173 13 -13 115 2 156 23 l35 18 0 -37 c0 -88
-108 -180 -247 -212 -95 -21 -177 17 -185 87 -5 42 4 47 92 59 71 9 120 30
120 50 0 13 -7 15 -37 8 -21 -4 -139 -8 -261 -8 -211 1 -223 0 -203 -16 21
-18 102 -35 209 -46 34 -3 62 -9 62 -13 0 -20 -31 -77 -52 -97 -75 -70 -231
-71 -305 -1 -24 22 -31 72 -13 83 5 3 15 15 21 26 9 19 9 19 -10 10 -20 -11
-63 -1 -75 17 -6 11 25 22 62 22 19 0 21 4 16 24 -6 25 -14 16 216 261 265
282 351 424 394 655 22 115 20 154 -14 265 -28 90 -35 125 -27 125 2 0 29 -9
60 -19z m-2448 -21 c8 -13 -11 -13 -36 1 -11 5 -17 14 -14 20 7 10 39 -4 50
-21z m255 -48 c3 -2 -8 0 -23 3 l-28 7 15 -38 c8 -22 29 -93 46 -159 48 -182
129 -451 161 -533 27 -68 30 -92 10 -92 -28 0 -217 614 -255 827 l-5 32 37
-21 c20 -12 39 -23 42 -26z m-1991 -19 c21 -83 22 -98 6 -118 -8 -11 -30 -42
-47 -70 -18 -27 -54 -76 -80 -108 -26 -32 -48 -64 -48 -70 0 -5 -3 -7 -7 -4
-13 13 -32 -29 -33 -70 0 -29 -4 -43 -13 -43 -8 0 -14 6 -14 13 0 6 -5 44 -11
83 -15 90 -1 207 31 278 39 83 114 146 174 146 29 0 33 -4 42 -37z m1431 16
l25 -20 -25 7 c-13 4 -30 13 -38 20 -22 23 9 17 38 -7z m-230 -29 c-8 -5 -19
-10 -25 -10 -5 0 -3 5 5 10 8 5 20 10 25 10 6 0 3 -5 -5 -10z m85 -20 c17 -3
29 -12 27 -19 -1 -6 3 -11 11 -9 7 2 25 -7 41 -20 l29 -22 -32 0 c-17 0 -31 4
-31 9 0 5 -17 11 -37 15 -37 6 -101 45 -75 46 8 0 10 5 6 12 -5 8 -2 9 12 3
10 -4 33 -11 49 -15z m239 -5 c11 -8 17 -17 14 -20 -2 -3 -15 4 -28 15 -26 23
-15 27 14 5z m-1991 -58 c39 -17 98 -81 127 -138 12 -23 28 -73 36 -111 8 -39
21 -83 29 -99 10 -18 11 -30 5 -34 -6 -3 -10 3 -10 14 0 15 -5 19 -17 15 -13
-4 -14 -3 -5 3 7 5 10 17 6 26 -7 20 -20 22 -27 5 -2 -7 -3 2 -2 21 1 20 -4
41 -14 51 -9 9 -31 36 -49 58 -34 42 -64 53 -79 30 -4 -7 -8 -40 -9 -73 -1
-45 0 -52 6 -30 l8 30 1 -33 c0 -18 10 -58 21 -90 27 -73 27 -77 13 -75 -7 2
-20 -8 -29 -22 -16 -24 -43 -37 -28 -14 4 8 -1 9 -16 4 -14 -4 -20 -3 -16 3 3
5 -1 13 -10 16 -24 9 -36 7 -28 -5 4 -8 -12 -10 -52 -7 l-59 3 -3 -32 c-3 -35
2 -38 85 -52 26 -5 57 -12 67 -16 15 -7 17 -5 11 6 -6 11 -5 12 5 2 20 -19 4
-28 -45 -26 -33 1 -42 -2 -41 -14 0 -9 -6 -18 -14 -20 -13 -4 -13 -3 0 6 17
12 10 14 -14 5 -9 -3 -13 -10 -10 -15 3 -5 -4 -9 -15 -9 -11 0 -23 -5 -27 -11
-11 -19 -104 -2 -172 32 -96 47 -153 141 -124 204 28 62 187 94 293 60 30 -9
71 -28 91 -41 50 -32 54 -30 28 9 -12 17 -37 63 -56 102 -51 104 -47 204 10
245 45 33 79 37 129 17z m678 -99 c7 -13 6 -16 -3 -13 -14 6 -58 69 -58 82 1
9 46 -43 61 -69z m6389 32 c25 -22 41 -40 36 -40 -5 0 3 -9 17 -21 34 -26 70
-106 62 -139 -4 -19 -3 -21 5 -10 8 12 10 11 10 -8 0 -36 -26 -89 -53 -107
-41 -27 -138 -21 -202 13 -16 9 -34 15 -38 14 -5 -1 -6 2 -2 8 3 5 0 10 -7 11
-7 0 -8 3 -3 5 6 2 9 20 7 38 -3 28 0 35 18 41 11 4 27 2 34 -5 8 -6 18 -10
22 -9 19 3 35 -1 31 -8 -8 -13 71 -9 84 4 16 16 2 86 -22 114 -11 13 -17 29
-15 36 3 7 -1 13 -8 13 -7 0 -19 6 -25 14 -9 11 -9 17 3 28 12 11 12 15 -1 31
-30 32 2 17 47 -23z m-4481 -33 c0 -9 -2 -8 -6 1 -2 6 -10 9 -15 6 -7 -4 -8
-2 -4 5 9 13 26 5 25 -12z m95 -5 c11 -6 -52 -41 -74 -42 -29 0 -40 20 -21 40
12 14 25 17 51 13 19 -3 39 -8 44 -11z m-1964 -122 c33 -49 60 -93 60 -97 0
-4 -20 15 -45 42 -41 46 -43 48 -36 20 8 -26 101 -199 133 -245 6 -8 -10 7
-36 33 -25 27 -46 47 -46 45 0 -1 22 -77 49 -168 45 -154 53 -195 30 -160 -31
49 -199 637 -178 624 5 -3 36 -45 69 -94z m4449 -11 c36 -80 53 -159 53 -257
1 -117 -25 -166 -93 -177 -43 -7 -66 -32 -109 -117 -13 -26 -28 -44 -32 -42
-4 3 -8 0 -8 -6 0 -19 -54 -80 -72 -80 -9 0 -20 -5 -24 -12 -5 -7 -3 -8 7 -3
12 8 12 6 0 -8 -15 -19 -26 -23 -15 -5 5 7 2 9 -7 6 -97 -40 -125 -54 -131
-63 -5 -6 -8 -3 -8 7 0 40 76 177 133 238 12 14 60 70 105 124 87 105 135 193
153 278 11 52 8 165 -6 203 -15 42 24 -21 54 -86z m-1054 9 c28 -6 59 -14 70
-19 11 -6 34 -9 50 -8 17 2 56 2 87 1 l57 -2 -16 -46 c-8 -25 -13 -47 -11 -49
2 -2 16 30 30 73 l27 77 0 -50 c1 -116 -91 -303 -235 -473 -71 -85 -94 -105
-182 -157 -95 -56 -110 -71 -152 -143 -6 -11 -24 -6 -85 22 -60 28 -81 33 -87
24 -11 -18 23 -44 109 -85 51 -23 77 -42 87 -62 9 -16 32 -42 52 -58 l37 -30
-34 -24 c-29 -20 -46 -24 -109 -24 -63 0 -85 5 -142 32 -125 59 -197 148 -198
245 0 78 4 80 68 42 51 -31 82 -42 82 -29 0 3 -13 24 -30 47 -16 22 -30 52
-30 66 0 35 63 162 95 192 23 21 25 22 19 5 -20 -57 268 296 328 403 23 39 35
52 47 47 9 -4 39 -11 66 -17z m-1477 -62 c12 -28 5 -41 -15 -25 -14 13 -18 49
-5 49 5 0 14 -11 20 -24z m-2086 -71 c-3 -18 0 -25 9 -23 18 4 18 -12 -1 -38
-19 -27 -97 -67 -116 -60 -8 3 -13 2 -13 -2 3 -18 -2 -22 -15 -10 -8 7 -12 16
-9 21 2 4 -1 7 -6 7 -14 0 -14 -17 0 -26 8 -4 7 -9 -2 -15 -17 -10 -29 -2 -29
21 0 22 54 55 72 44 6 -4 9 -1 6 6 -5 16 57 72 108 99 1 1 -1 -10 -4 -24z
m-305 -125 c73 -44 77 -138 7 -181 -32 -19 -40 -20 -75 -10 -64 19 -98 96 -68
154 13 24 32 38 64 49 32 10 38 9 72 -12z m-270 -124 c-13 -10 -16 -21 -11
-42 4 -16 10 -31 14 -34 4 -3 1 -12 -8 -20 -14 -13 -15 -12 -9 3 3 9 2 17 -3
17 -6 0 -10 -11 -10 -24 0 -14 -11 -37 -24 -53 -12 -15 -28 -38 -35 -51 -13
-24 -6 -45 12 -39 7 2 16 -5 22 -16 11 -22 55 -50 93 -59 16 -5 30 1 48 19 14
14 27 23 30 21 2 -3 -12 -20 -33 -38 -48 -44 -136 -79 -196 -80 -55 0 -121 29
-138 62 -30 56 4 170 70 232 16 16 65 48 108 72 81 45 101 53 70 30z m1405
-34 c10 -8 31 -15 47 -16 15 -1 33 -6 39 -12 17 -18 -66 -5 -108 18 -19 10
-46 18 -60 19 -22 0 -23 1 -6 8 26 10 67 2 88 -17z m1925 -51 c17 -11 44 -41
59 -68 15 -26 42 -66 60 -88 l33 -40 -30 -28 c-57 -52 -157 -26 -193 50 -20
42 -21 113 -2 158 17 40 29 43 73 16z m-2842 -49 c-3 -3 -11 0 -18 7 -9 10 -8
11 6 5 10 -3 15 -9 12 -12z m4725 8 c40 -21 46 -117 13 -183 -16 -32 -68 -67
-100 -67 -17 0 -23 -6 -23 -20 0 -56 -62 -110 -125 -110 -27 0 -90 52 -83 69
2 5 27 27 56 50 64 51 112 114 154 204 28 60 35 67 61 67 15 0 37 -5 47 -10z
m-2126 -8 c43 -8 55 -23 33 -43 -8 -8 -12 -22 -9 -33 3 -13 1 -17 -6 -12 -15
9 -16 -26 -1 -41 18 -18 -1 -63 -30 -69 -53 -11 -148 -48 -211 -82 l-65 -35
75 7 c41 4 117 14 168 22 52 8 97 12 102 9 11 -7 -12 -87 -36 -123 -35 -54
-91 -80 -174 -81 -112 -2 -292 68 -383 149 -40 36 -41 38 -27 64 28 53 163
170 240 209 106 53 229 76 324 59z m-2617 -42 c3 0 11 8 18 17 11 14 16 15 28
5 8 -7 21 -11 28 -10 20 4 66 -88 79 -158 26 -135 -29 -252 -127 -270 -50 -9
-130 18 -181 61 -79 68 -132 231 -103 320 l9 30 1 -33 c1 -29 3 -32 25 -26 31
7 75 -16 106 -57 49 -64 52 -65 68 -28 8 19 18 42 23 52 5 9 7 30 3 45 -4 21
-3 24 5 12 14 -20 15 4 1 30 -5 10 -7 27 -3 37 7 16 8 16 11 -4 2 -13 6 -23 9
-23z m6623 16 c0 -3 -4 -8 -10 -11 -5 -3 -10 -1 -10 4 0 6 5 11 10 11 6 0 10
-2 10 -4z m-697 -56 c32 0 19 -39 -25 -70 -41 -30 -81 -39 -93 -20 -4 6 1 35
10 64 l17 53 36 -13 c21 -7 45 -13 55 -14z m-4843 -24 c0 -14 -5 -17 -22 -12
-13 3 -31 6 -41 6 -10 0 -16 4 -12 9 3 5 -3 11 -12 13 -10 3 6 4 34 4 45 -1
53 -4 53 -20z m5360 9 c-2 -14 -35 -25 -50 -15 -7 4 -9 13 -5 19 8 14 56 10
55 -4z m94 9 c9 -3 16 -10 16 -14 0 -10 -38 -1 -46 11 -6 10 7 12 30 3z
m-5584 -154 c38 -11 54 -19 39 -19 -28 -1 -137 32 -181 55 -52 27 -38 33 19 7
32 -14 87 -34 123 -43z m1135 -120 c3 -6 -1 -7 -9 -4 -18 7 -21 14 -7 14 6 0
13 -4 16 -10z m-2555 -190 c0 -5 -4 -10 -10 -10 -5 0 -10 5 -10 10 0 6 5 10
10 10 6 0 10 -4 10 -10z m5865 -37 c10 -16 29 -40 43 -55 l25 -27 -24 -29
c-13 -16 -32 -44 -42 -62 -22 -40 -38 -35 -55 17 -9 26 -22 44 -39 52 l-26 12
25 27 c14 15 33 42 42 60 20 39 29 40 51 5z m-5995 -13 c0 -5 -6 -10 -14 -10
-8 0 -18 5 -21 10 -3 6 3 10 14 10 12 0 21 -4 21 -10z"/>
<path d="M3536 8431 c-4 -7 -5 -15 -2 -18 9 -9 19 4 14 18 -4 11 -6 11 -12 0z"/>
<path d="M6350 7870 c0 -6 7 -10 15 -10 8 0 15 2 15 4 0 2 -7 6 -15 10 -8 3
-15 1 -15 -4z"/>
<path d="M4715 7786 c-174 -25 -324 -79 -475 -169 -114 -68 -161 -104 -254
-195 -78 -76 -174 -207 -161 -220 3 -4 14 3 23 14 47 59 243 220 332 274 56
34 194 100 198 95 3 -3 -1 -5 -8 -5 -7 0 -11 -2 -8 -5 8 -9 38 6 32 16 -3 5 1
6 9 3 8 -3 18 -1 22 5 3 6 20 11 36 11 17 0 28 4 25 9 -3 5 4 9 17 9 30 -1
177 39 192 52 7 6 26 10 41 10 16 -1 49 2 74 6 25 3 127 7 228 7 100 1 182 2
182 4 0 9 -102 46 -172 62 -114 27 -226 32 -333 17z"/>
<path d="M5540 7656 c0 -8 4 -17 9 -20 5 -4 7 3 4 14 -6 23 -13 26 -13 6z"/>
<path d="M5728 7593 c7 -3 16 -2 19 1 4 3 -2 6 -13 5 -11 0 -14 -3 -6 -6z"/>
<path d="M5826 6666 c3 -8 12 -17 20 -20 8 -3 14 -13 14 -21 0 -9 5 -13 10
-10 16 10 12 20 -20 43 -19 14 -27 17 -24 8z"/>
<path d="M5895 6610 c3 -5 8 -10 11 -10 2 0 4 5 4 10 0 6 -5 10 -11 10 -5 0
-7 -4 -4 -10z"/>
<path d="M4340 5881 c0 -10 19 -25 25 -20 1 2 -3 10 -11 17 -8 7 -14 8 -14 3z"/>
<path d="M8736 7585 c-9 -26 -7 -32 5 -12 6 10 9 21 6 23 -2 3 -7 -2 -11 -11z"/>
<path d="M8155 7960 c-3 -5 1 -10 9 -10 9 0 19 0 23 -1 4 0 9 4 11 10 5 14
-35 14 -43 1z"/>
<path d="M7132 7377 c-6 -7 -18 -60 -27 -117 -18 -108 -31 -157 -42 -147 -3 4
-22 -1 -42 -9 -36 -15 -36 -15 -64 18 -15 18 -35 44 -45 58 -59 88 -114 114
-146 68 -9 -12 -16 -28 -16 -34 0 -6 32 -51 70 -100 89 -110 81 -123 -43 -70
-95 41 -112 43 -127 17 -25 -48 8 -110 62 -116 13 -2 49 -10 80 -20 l58 -16
-1 -52 -2 -52 -99 -44 c-54 -24 -110 -53 -123 -63 -33 -25 -32 -63 0 -84 25
-16 29 -15 118 26 129 59 128 59 66 -6 -66 -69 -78 -97 -53 -125 28 -31 59
-23 105 26 23 24 46 42 52 38 6 -4 7 -1 2 6 -8 14 31 61 52 61 8 0 12 4 9 9
-3 4 12 3 34 -3 30 -7 40 -15 41 -31 2 -86 18 -188 30 -196 22 -14 56 -10 74
8 15 14 16 29 11 97 -4 45 -9 88 -12 97 -6 20 44 46 52 26 2 -7 31 -41 64 -76
33 -35 58 -67 55 -70 -7 -12 64 1 73 13 29 36 24 55 -30 114 -99 106 -93 94
-68 147 21 44 23 45 68 45 65 1 122 10 152 23 35 17 40 71 9 88 -21 11 -108 8
-166 -5 -13 -3 -25 0 -29 6 -4 6 -10 5 -15 -3 -7 -11 -9 -11 -9 2 0 23 11 30
27 17 7 -6 16 -8 20 -4 3 3 1 6 -5 6 -27 0 -8 23 58 71 39 28 74 58 79 67 12
24 -4 60 -32 73 -27 12 -44 3 -150 -79 l-55 -43 -35 23 c-41 26 -42 32 -23
125 27 130 29 169 11 187 -20 19 -58 21 -73 3z m10 -373 c120 -61 92 -246 -41
-269 -76 -13 -144 40 -157 121 -11 72 26 136 91 159 41 14 61 12 107 -11z"/>
<path d="M9320 7530 c-9 -6 -10 -10 -3 -10 6 0 15 5 18 10 8 12 4 12 -15 0z"/>
<path d="M9001 7094 c0 -11 3 -14 6 -6 3 7 2 16 -1 19 -3 4 -6 -2 -5 -13z"/>
<path d="M8590 6999 c0 -5 5 -7 10 -4 6 3 10 8 10 11 0 2 -4 4 -10 4 -5 0 -10
-5 -10 -11z"/>
<path d="M9305 6500 c-4 -6 -1 -17 5 -25 7 -8 9 -23 6 -32 -5 -15 -3 -14 9 2
14 18 14 21 -1 32 -9 6 -13 16 -9 22 3 6 4 11 1 11 -3 0 -8 -5 -11 -10z"/>
<path d="M3975 6150 c-3 -5 -5 -10 -3 -11 33 -8 38 -7 27 7 -14 17 -16 17 -24
4z"/>
<path d="M4010 6110 c0 -5 5 -10 10 -10 6 0 10 5 10 10 0 6 -4 10 -10 10 -5 0
-10 -4 -10 -10z"/>
<path d="M6278 5923 c7 -3 16 -2 19 1 4 3 -2 6 -13 5 -11 0 -14 -3 -6 -6z"/>
<path d="M6665 5640 c3 -5 8 -10 11 -10 2 0 4 5 4 10 0 6 -5 10 -11 10 -5 0
-7 -4 -4 -10z"/>
<path d="M8326 5503 c-6 -14 -5 -15 5 -6 7 7 10 15 7 18 -3 3 -9 -2 -12 -12z"/>
<path d="M8295 5480 c-3 -5 -1 -10 4 -10 6 0 11 5 11 10 0 6 -2 10 -4 10 -3 0
-8 -4 -11 -10z"/>
<path d="M8370 5406 c0 -2 7 -7 16 -10 8 -3 12 -2 9 4 -6 10 -25 14 -25 6z"/>
<path d="M6801 4718 c-9 -23 -6 -36 4 -26 8 7 15 48 9 48 -3 0 -8 -10 -13 -22z"/>
<path d="M6746 4628 c3 -5 10 -6 15 -3 13 9 11 12 -6 12 -8 0 -12 -4 -9 -9z"/>
<path d="M5125 4569 c-173 -18 -289 -47 -401 -99 -33 -16 -68 -38 -79 -49 -44
-50 -22 -216 47 -352 84 -163 216 -282 373 -335 68 -23 97 -27 190 -27 93 0
121 4 182 26 222 79 331 251 321 506 -4 118 -29 190 -84 245 -81 81 -284 112
-549 85z m240 -58 l30 -7 -40 -21 c-146 -76 -483 -119 -534 -69 -23 24 -6 33
103 61 141 36 362 54 441 36z m-327 -496 c-3 -3 -9 2 -12 12 -6 14 -5 15 5 6
7 -7 10 -15 7 -18z m249 -251 c-3 -3 -12 -4 -19 -1 -8 3 -5 6 6 6 11 1 17 -2
13 -5z"/>
<path d="M3977 4408 c-21 -6 -54 -26 -73 -45 -28 -28 -32 -37 -24 -53 13 -24
13 -33 -1 -24 -7 4 -9 2 -5 -7 3 -8 8 -21 12 -29 17 -46 138 -85 243 -78 63 5
140 36 124 51 -3 4 1 7 10 7 20 0 21 13 6 42 -7 13 -7 18 0 14 5 -4 15 3 21
14 9 16 8 22 -5 26 -8 3 -12 10 -9 15 3 5 -3 9 -12 9 -10 0 -14 3 -11 7 4 3
-11 17 -34 31 -32 19 -58 25 -123 28 -44 2 -98 -2 -119 -8z m-20 -74 c-3 -3
-12 -4 -19 -1 -8 3 -5 6 6 6 11 1 17 -2 13 -5z m-44 -22 c-3 -7 -9 -10 -12 -5
-3 4 -10 11 -15 15 -4 4 1 6 12 5 12 -1 18 -6 15 -15z m12 -81 c-6 -5 -25 10
-25 20 0 5 6 4 14 -3 8 -7 12 -15 11 -17z m118 -38 c-7 -2 -21 -2 -30 0 -10 3
-4 5 12 5 17 0 24 -2 18 -5z"/>
<path d="M6250 4399 c-19 -5 -46 -12 -60 -15 -14 -3 -26 -9 -28 -14 -2 -5 -9
-7 -16 -4 -6 2 -12 -4 -12 -15 0 -11 5 -17 13 -14 7 3 13 0 13 -6 0 -7 -15 -9
-43 -5 -46 7 -47 6 -51 -71 -1 -27 2 -30 26 -27 15 2 38 -4 50 -14 20 -14 20
-15 3 -9 -11 4 -29 9 -40 12 l-20 4 20 -15 c11 -9 27 -23 37 -30 9 -8 18 -13
20 -11 1 2 28 -1 59 -6 46 -7 68 -5 115 10 52 17 55 19 27 20 -18 1 -33 6 -33
11 0 9 27 7 68 -6 7 -2 10 1 7 7 -4 6 -1 9 6 8 24 -5 59 25 60 51 0 14 3 19 6
11 4 -10 10 -5 18 15 12 28 4 66 -13 62 -8 -1 -40 10 -66 24 -15 8 -18 7 -14
-4 4 -10 -5 -12 -38 -9 -54 4 -59 21 -6 21 31 1 34 2 19 11 -10 6 -35 8 -55 5
-27 -5 -33 -4 -22 3 13 10 13 11 0 10 -8 -1 -31 -5 -50 -10z m-60 -69 c0 -5
-4 -10 -10 -10 -5 0 -10 5 -10 10 0 6 5 10 10 10 6 0 10 -4 10 -10z m185 -1
c30 -2 33 -3 12 -6 -15 -2 -32 -13 -37 -24 -14 -25 -30 -24 -30 1 0 15 -7 20
-27 20 -22 0 -25 2 -13 10 8 6 24 8 35 5 11 -2 38 -5 60 -6z m120 -9 c3 -5 1
-10 -4 -10 -6 0 -11 5 -11 10 0 6 2 10 4 10 3 0 8 -4 11 -10z m-250 -86 c13
-5 14 -8 3 -15 -20 -13 -35 -11 -35 6 0 16 7 18 32 9z m152 -10 c-3 -3 -12 -4
-19 -1 -8 3 -5 6 6 6 11 1 17 -2 13 -5z"/>
<path d="M4291 4264 c0 -11 3 -14 6 -6 3 7 2 16 -1 19 -3 4 -6 -2 -5 -13z"/>
<path d="M6085 4180 c27 -12 43 -12 25 0 -8 5 -22 9 -30 9 -10 0 -8 -3 5 -9z"/>
<path d="M6420 3892 c-16 -8 -25 -32 -12 -32 5 0 17 9 27 20 18 20 13 24 -15
12z"/>
<path d="M4034 3861 c4 -6 16 -16 28 -22 15 -8 18 -8 14 0 -4 6 -16 16 -28 22
-15 8 -18 8 -14 0z"/>
<path d="M4097 3819 c7 -7 15 -10 18 -7 3 3 -2 9 -12 12 -14 6 -15 5 -6 -5z"/>
<path d="M4130 3805 c0 -7 61 -37 66 -33 2 3 -12 12 -31 21 -19 9 -35 15 -35
12z"/>
<path d="M5868 3633 c7 -3 16 -2 19 1 4 3 -2 6 -13 5 -11 0 -14 -3 -6 -6z"/>
<path d="M5760 3610 c0 -5 5 -10 10 -10 6 0 10 5 10 10 0 6 -4 10 -10 10 -5 0
-10 -4 -10 -10z"/>
<path d="M2672 4199 c2 -30 7 -45 14 -42 16 6 23 44 13 69 -5 13 -8 14 -8 4
-1 -13 -2 -13 -11 0 -7 11 -9 2 -8 -31z"/>
<path d="M1301 4719 c-1 -14 6 -34 14 -45 19 -25 19 -1 0 41 -13 30 -13 30
-14 4z"/>
<path d="M2418 4594 c-4 -3 -28 -12 -55 -19 l-48 -13 46 -1 c30 -1 51 4 59 14
12 15 10 31 -2 19z"/>
<path d="M2160 4879 c0 -5 5 -7 10 -4 6 3 10 8 10 11 0 2 -4 4 -10 4 -5 0 -10
-5 -10 -11z"/>
<path d="M1888 4783 c7 -3 16 -2 19 1 4 3 -2 6 -13 5 -11 0 -14 -3 -6 -6z"/>
<path d="M4250 4870 c-8 -16 -8 -20 3 -20 8 0 17 9 20 20 3 11 1 20 -4 20 -4
0 -13 -9 -19 -20z"/>
<path d="M8880 4576 c0 -3 9 -10 20 -16 11 -6 20 -8 20 -6 0 3 -9 10 -20 16
-11 6 -20 8 -20 6z"/>
<path d="M7350 3380 c-188 -50 -340 -163 -410 -305 -31 -63 -34 -79 -35 -154
l0 -83 65 -20 c97 -30 186 -99 210 -164 l9 -22 43 21 c33 17 61 22 118 22 87
0 149 -20 215 -71 l45 -34 45 31 c92 62 277 128 407 145 60 8 67 19 75 122 17
229 -116 410 -369 499 -103 36 -308 43 -418 13z m316 -81 c32 -6 67 -15 78
-21 17 -9 14 -12 -20 -27 -45 -21 -132 -103 -168 -159 -13 -21 -30 -59 -37
-83 -7 -24 -17 -50 -22 -56 -14 -19 -210 -17 -277 3 -60 18 -134 64 -144 90
-4 9 -12 14 -21 10 -35 -13 -11 30 53 93 83 83 184 133 312 154 52 9 189 7
246 -4z m185 -99 c31 -17 22 -37 -18 -44 -94 -15 -118 -1 -60 34 36 23 50 24
78 10z m66 -126 c18 -14 38 -34 43 -45 15 -28 9 -63 -13 -67 -25 -5 -100 45
-127 86 -24 34 -24 34 -5 49 25 17 59 10 102 -23z"/>
<path d="M6831 3269 c-85 -18 -151 -101 -136 -171 9 -38 21 -35 29 6 14 74
124 146 206 134 16 -3 30 -1 30 4 0 4 -1 8 -2 8 -2 0 -23 6 -48 13 -27 8 -58
11 -79 6z"/>
<path d="M8153 3243 c-26 -10 -11 -23 27 -23 64 0 140 -79 140 -147 0 -40 20
-15 26 33 6 51 -22 96 -75 124 -38 19 -90 25 -118 13z"/>
<path d="M8341 2940 c0 -8 4 -22 9 -30 12 -18 12 -2 0 25 -6 13 -9 15 -9 5z"/>
<path d="M7983 2568 c-47 -10 -113 -65 -113 -92 0 -14 8 -11 38 13 21 17 70
39 114 52 42 13 75 26 72 31 -7 10 -57 9 -111 -4z"/>
<path d="M7143 2493 c3 -32 12 -53 27 -65 25 -20 82 -33 107 -24 14 6 9 11
-22 25 -45 20 -79 55 -90 89 -12 41 -28 24 -22 -25z"/>
<path d="M8213 2495 c-3 -65 -42 -104 -135 -136 -55 -18 -54 -23 10 -34 28 -4
48 -3 57 5 8 6 20 8 27 4 7 -4 10 -4 6 1 -4 4 0 14 10 21 25 19 37 17 21 -3
-13 -16 -12 -17 3 -4 10 7 16 17 13 21 -3 4 2 21 10 36 20 38 19 77 -2 103
-18 22 -18 22 -20 -14z"/>
<path d="M8385 2463 c17 -42 17 -104 0 -150 -21 -54 -76 -119 -119 -139 l-31
-14 35 5 c90 14 169 103 169 190 1 45 -32 125 -50 125 -7 0 -8 -7 -4 -17z"/>
<path d="M7726 2356 c-10 -18 -36 -44 -59 -57 -36 -20 -56 -24 -129 -24 l-87
0 37 -22 c64 -39 197 -29 230 18 7 10 18 16 24 13 6 -4 8 -2 4 4 -3 6 -2 13 4
17 12 7 14 72 2 79 -4 3 -16 -10 -26 -28z"/>
<path d="M7212 2196 c-6 -15 -12 -40 -12 -56 0 -35 55 -109 95 -130 35 -17
153 -26 192 -14 24 6 19 9 -35 15 -108 13 -203 88 -219 173 l-8 39 -13 -27z"/>
<path d="M8060 2180 c0 -5 6 -10 13 -10 26 0 77 -61 77 -92 0 -54 -87 -118
-163 -118 -10 0 -34 7 -54 15 -53 22 -50 12 6 -18 82 -45 159 -31 221 39 35
40 41 104 14 143 -25 35 -114 67 -114 41z"/>
<path d="M7645 1953 c-16 -9 -41 -25 -55 -35 l-25 -20 30 8 c17 4 40 11 53 15
37 14 99 10 116 -7 41 -41 6 -116 -70 -151 -66 -30 -110 -26 -178 18 -56 35
-59 26 -8 -24 60 -59 142 -73 210 -37 76 40 112 87 112 143 0 31 -7 46 -34 73
-28 28 -41 34 -77 34 -24 -1 -57 -8 -74 -17z"/>
<path d="M2533 2788 c3 -23 16 -63 29 -88 23 -46 23 -46 68 -42 28 2 60 -2 84
-12 66 -27 22 12 -49 45 -68 31 -88 49 -110 102 -20 49 -29 47 -22 -5z"/>
<path d="M2860 2881 c0 -5 5 -13 10 -16 6 -3 10 -2 10 4 0 5 -4 13 -10 16 -5
3 -10 2 -10 -4z"/>
<path d="M5834 3298 c3 -10 -2 -22 -12 -27 -9 -6 -12 -11 -6 -11 20 0 34 24
22 40 -8 12 -9 12 -4 -2z"/>
<path d="M4330 2801 c0 -12 21 -27 50 -36 24 -6 24 -6 -5 19 -32 27 -45 32
-45 17z"/>
<path d="M4890 3060 c0 -6 7 -10 15 -10 8 0 15 2 15 4 0 2 -7 6 -15 10 -8 3
-15 1 -15 -4z"/>
<path d="M6554 2638 c21 -51 41 -176 39 -250 -3 -130 -96 -355 -199 -482 -63
-77 -57 -79 43 -10 141 97 257 231 288 335 9 30 23 67 31 82 7 16 14 41 14 56
0 15 9 36 19 45 10 10 18 24 17 32 -4 24 -62 100 -97 127 -31 23 -156 97 -164
97 -2 0 2 -15 9 -32z m73 -159 c4 -52 2 -78 -6 -83 -7 -5 -11 4 -11 27 0 19
-2 70 -5 113 -7 104 13 54 22 -57z"/>
<path d="M6174 1655 c-75 -84 -115 -165 -81 -165 7 0 18 9 25 20 7 12 8 20 2
20 -16 0 -12 13 13 40 42 46 110 140 105 146 -3 3 -32 -25 -64 -61z"/>
<path d="M8910 2440 c0 -5 5 -10 10 -10 6 0 10 5 10 10 0 6 -4 10 -10 10 -5 0
-10 -4 -10 -10z"/>
<path d="M4390 2460 c0 -5 5 -10 11 -10 5 0 7 5 4 10 -3 6 -8 10 -11 10 -2 0
-4 -4 -4 -10z"/>
<path d="M2307 2203 c-10 -9 -9 -23 1 -23 5 0 9 7 9 15 0 17 -1 18 -10 8z"/>
<path d="M4841 1769 c0 -13 4 -33 9 -44 7 -14 8 -8 3 20 -7 46 -13 59 -12 24z"/>
<path d="M3988 9083 c6 -2 12 -9 12 -14 0 -6 -8 -6 -19 1 -26 13 -52 14 -31 0
12 -8 12 -12 2 -18 -9 -6 -5 -12 13 -22 23 -12 28 -12 36 0 8 13 11 13 22 -1
6 -9 22 -21 35 -28 13 -7 21 -18 19 -25 -6 -16 9 -43 19 -33 9 9 13 67 4 62
-4 -2 -15 11 -25 30 -19 34 -52 56 -83 54 -10 0 -12 -3 -4 -6z"/>
<path d="M5349 8928 c4 -28 6 -29 9 -9 2 13 0 27 -5 32 -6 6 -7 -3 -4 -23z"/>
<path d="M5322 8930 c0 -14 2 -19 5 -12 2 6 2 18 0 25 -3 6 -5 1 -5 -13z"/>
<path d="M7686 8878 c-21 -29 -20 -51 2 -78 35 -43 112 -15 112 41 0 52 -85
79 -114 37z"/>
<path d="M5312 8865 c0 -16 2 -22 5 -12 2 9 2 23 0 30 -3 6 -5 -1 -5 -18z"/>
<path d="M6552 8881 c-11 -7 -11 -9 2 -14 10 -4 16 -1 16 8 0 17 -1 17 -18 6z"/>
<path d="M6005 8836 c-14 -14 -25 -35 -25 -46 0 -24 45 -70 70 -70 27 0 60 38
60 70 0 27 -22 60 -40 60 -5 0 -15 3 -24 6 -9 3 -26 -5 -41 -20z"/>
<path d="M6466 8813 c-6 -14 -5 -15 5 -6 7 7 10 15 7 18 -3 3 -9 -2 -12 -12z"/>
<path d="M6500 8815 c0 -8 7 -15 15 -15 9 0 12 6 9 15 -4 8 -10 15 -15 15 -5
0 -9 -7 -9 -15z"/>
<path d="M3242 8808 c-27 -27 -6 -68 34 -68 33 0 49 25 36 55 -13 27 -49 34
-70 13z"/>
<path d="M6464 8758 c0 -21 5 -33 10 -28 4 4 4 21 -2 37 -10 28 -10 28 -8 -9z"/>
<path d="M4902 8760 c0 -14 2 -19 5 -12 2 6 2 18 0 25 -3 6 -5 1 -5 -13z"/>
<path d="M4530 8755 c-18 -21 -5 -46 22 -41 26 3 37 34 16 47 -18 12 -24 11
-38 -6z"/>
<path d="M6507 8763 c-4 -3 -7 -22 -7 -40 0 -21 -4 -32 -10 -28 -7 4 -9 -5 -5
-24 4 -23 2 -31 -10 -31 -10 0 -15 10 -15 28 0 37 -15 60 -24 37 -9 -25 -7
-65 4 -65 6 0 10 -12 10 -27 0 -20 3 -24 9 -14 7 11 10 11 16 0 11 -16 23 13
25 56 0 17 8 39 17 50 15 19 15 19 8 -10 -5 -24 -4 -27 6 -18 12 12 15 65 4
83 -7 12 -19 13 -28 3z"/>
<path d="M3950 8731 c0 -6 4 -13 10 -16 6 -3 7 1 4 9 -7 18 -14 21 -14 7z"/>
<path d="M2122 8685 c-38 -48 5 -117 61 -96 38 15 61 54 47 80 -24 45 -79 54
-108 16z"/>
<path d="M6386 8615 c-3 -9 -6 -22 -5 -28 0 -7 5 -1 10 12 5 13 8 26 5 28 -2
2 -6 -3 -10 -12z"/>
<path d="M6345 8589 c-4 -6 -5 -12 -2 -15 2 -3 7 2 10 11 7 17 1 20 -8 4z"/>
<path d="M6455 8519 c-4 -6 -5 -12 -2 -15 2 -3 7 2 10 11 7 17 1 20 -8 4z"/>
<path d="M8902 8500 c0 -14 2 -19 5 -12 2 6 2 18 0 25 -3 6 -5 1 -5 -13z"/>
<path d="M1665 8464 c-46 -24 -64 -44 -76 -85 -34 -110 66 -218 174 -188 54
15 94 56 108 109 11 40 9 51 -9 92 -33 76 -125 110 -197 72z m103 -80 c32 -22
30 -76 -4 -103 -34 -27 -50 -26 -79 4 -30 30 -31 54 -4 89 23 29 54 33 87 10z"/>
<path d="M8900 8460 c0 -5 5 -10 10 -10 6 0 10 5 10 10 0 6 -4 10 -10 10 -5 0
-10 -4 -10 -10z"/>
<path d="M9280 8441 c0 -6 -6 -8 -14 -5 -7 3 -26 -6 -42 -20 -16 -14 -23 -26
-16 -26 6 0 12 -7 12 -15 0 -13 4 -14 20 -5 11 6 18 15 15 19 -3 5 2 12 11 15
10 4 13 2 8 -6 -5 -7 -3 -8 6 -3 7 4 34 8 61 8 50 0 56 11 13 28 -47 17 -74
21 -74 10z"/>
<path d="M4440 8371 c0 -5 5 -13 10 -16 6 -3 10 -2 10 4 0 5 -4 13 -10 16 -5
3 -10 2 -10 -4z"/>
<path d="M9184 8365 c-3 -8 -4 -20 -1 -27 3 -7 6 -3 6 10 1 15 5 21 13 16 7
-4 8 -3 4 4 -10 16 -15 15 -22 -3z"/>
<path d="M9376 8317 c-3 -13 -1 -36 3 -52 7 -23 10 -25 11 -10 1 11 1 25 0 30
-2 6 -2 20 -2 33 2 29 -4 28 -12 -1z"/>
<path d="M9361 8254 c0 -11 3 -14 6 -6 3 7 2 16 -1 19 -3 4 -6 -2 -5 -13z"/>
<path d="M9258 8240 c13 -11 20 -25 17 -31 -5 -8 -2 -8 11 -1 11 6 32 8 47 5
15 -3 27 -2 27 2 0 12 -25 32 -37 28 -6 -2 -29 0 -50 6 l-38 10 23 -19z"/>
<path d="M3284 7928 c4 -13 0 -18 -12 -18 -16 -1 -16 -1 1 -11 13 -7 16 -17
11 -32 -6 -21 -6 -21 15 2 25 29 26 32 4 24 -12 -5 -15 -2 -11 9 4 8 2 21 -4
29 -8 11 -9 10 -4 -3z"/>
<path d="M3310 7855 c-8 -9 -8 -15 -2 -15 12 0 26 19 19 26 -2 2 -10 -2 -17
-11z"/>
<path d="M1848 7813 c7 -3 16 -2 19 1 4 3 -2 6 -13 5 -11 0 -14 -3 -6 -6z"/>
<path d="M3130 7600 c0 -5 5 -10 11 -10 5 0 7 5 4 10 -3 6 -8 10 -11 10 -2 0
-4 -4 -4 -10z"/>
<path d="M3161 7576 c-10 -12 -8 -13 8 -9 12 3 18 9 15 14 -7 12 -10 11 -23
-5z"/>
<path d="M1423 7106 c-25 -12 -27 -15 -15 -34 7 -10 15 -10 36 -2 34 13 46 6
41 -22 -3 -11 -2 -18 2 -14 3 3 12 1 20 -5 9 -9 13 -8 13 0 0 6 -5 11 -11 11
-7 0 -9 9 -5 24 9 38 -39 63 -81 42z"/>
<path d="M1523 7070 c1 -11 5 -20 9 -20 11 0 10 28 -1 35 -6 3 -9 -4 -8 -15z"/>
<path d="M1834 7031 c-1 -14 1 -20 4 -12 3 9 9 4 17 -15 13 -28 13 -28 11 -4
-1 14 -6 32 -11 40 -8 13 -6 13 8 1 9 -7 17 -20 17 -27 0 -8 5 -14 10 -14 26
0 -5 48 -35 54 -16 3 -20 -2 -21 -23z"/>
<path d="M1440 6970 c0 -5 -3 -16 -6 -25 -6 -14 -3 -14 20 -4 31 15 33 25 6
32 -11 3 -20 1 -20 -3z"/>
<path d="M1468 6923 c7 -3 16 -2 19 1 4 3 -2 6 -13 5 -11 0 -14 -3 -6 -6z"/>
<path d="M1940 6901 c0 -5 7 -12 16 -15 14 -5 15 -4 4 9 -14 17 -20 19 -20 6z"/>
<path d="M9720 6533 c-31 -36 -32 -86 -2 -113 12 -12 22 -18 22 -14 0 3 6 1
14 -5 31 -26 94 24 94 74 -1 77 -80 113 -128 58z m35 -43 c-3 -5 -1 -20 5 -32
11 -22 10 -22 -4 -4 -18 23 -21 46 -5 46 5 0 7 -4 4 -10z m15 -70 c0 -5 -7 -7
-15 -4 -8 4 -15 8 -15 10 0 2 7 4 15 4 8 0 15 -4 15 -10z"/>
<path d="M9884 6026 c-11 -28 1 -51 25 -51 32 0 49 28 32 49 -17 20 -50 21
-57 2z"/>
<path d="M1041 5464 c0 -11 3 -14 6 -6 3 7 2 16 -1 19 -3 4 -6 -2 -5 -13z"/>
<path d="M1086 5395 c4 -8 11 -15 16 -15 6 0 5 6 -2 15 -7 8 -14 15 -16 15 -2
0 -1 -7 2 -15z"/>
<path d="M1185 5332 c3 -9 0 -12 -9 -9 -10 4 -13 1 -9 -9 3 -8 14 -12 29 -10
52 10 59 31 14 38 -24 4 -30 1 -25 -10z"/>
<path d="M1286 5236 c3 -8 13 -17 21 -20 26 -10 25 0 -1 18 -20 13 -24 13 -20
2z"/>
<path d="M994 3965 c-8 -19 3 -35 26 -35 22 0 33 23 17 39 -15 15 -37 14 -43
-4z"/>
<path d="M1114 3655 c-10 -24 12 -42 34 -29 24 16 21 38 -6 42 -13 2 -25 -3
-28 -13z"/>
<path d="M9545 3260 c-3 -5 1 -10 9 -10 9 0 16 5 16 10 0 6 -4 10 -9 10 -6 0
-13 -4 -16 -10z"/>
<path d="M9366 3241 c-9 -10 -16 -25 -14 -32 2 -10 -6 -13 -25 -12 -23 1 -25
0 -14 -11 8 -9 29 -12 55 -10 23 2 44 -1 48 -7 10 -17 -5 -57 -24 -62 -13 -3
-11 -6 11 -15 15 -6 27 -17 28 -24 0 -7 4 -4 9 7 7 17 9 17 9 3 1 -14 10 -18
36 -18 19 0 35 -4 35 -10 0 -5 -11 -10 -25 -10 -59 0 19 -63 83 -66 36 -2 45
1 49 17 3 10 12 19 19 19 15 0 19 16 5 24 -4 3 -16 -3 -26 -14 -11 -12 -21
-16 -25 -10 -4 6 -17 7 -37 1 -23 -7 -35 -6 -43 4 -8 10 -8 15 1 21 19 11 73
13 80 2 3 -5 12 5 19 21 7 19 22 34 36 37 30 8 31 21 2 27 l-23 4 23 2 c13 0
20 6 17 11 -9 15 -42 12 -49 -5 -11 -29 -26 -15 -26 25 0 31 4 40 18 40 14 0
15 2 2 10 -9 5 -19 5 -26 -1 -8 -6 -27 -6 -57 2 -32 8 -51 8 -64 0 -17 -10
-17 -10 0 -11 19 0 19 -21 1 -27 -14 -5 -54 31 -54 49 0 14 -19 38 -30 38 -4
0 -15 -8 -24 -19z"/>
<path d="M9580 3252 c0 -7 -13 -12 -30 -12 -42 0 -38 -16 5 -17 38 -1 54 12
36 30 -8 8 -11 8 -11 -1z"/>
<path d="M9642 3188 c2 -6 10 -14 16 -16 7 -2 10 2 6 12 -7 18 -28 22 -22 4z"/>
<path d="M9616 3181 c-4 -7 -5 -15 -2 -18 9 -9 19 4 14 18 -4 11 -6 11 -12 0z"/>
<path d="M9390 3070 c0 -5 5 -10 11 -10 5 0 7 5 4 10 -3 6 -8 10 -11 10 -2 0
-4 -4 -4 -10z"/>
<path d="M9558 2943 c7 -3 16 -2 19 1 4 3 -2 6 -13 5 -11 0 -14 -3 -6 -6z"/>
<path d="M1152 2777 c-12 -13 -22 -36 -22 -51 0 -37 41 -76 80 -76 38 0 80 39
80 75 0 65 -93 100 -138 52z"/>
<path d="M8492 1519 c-32 -12 -47 -56 -28 -85 35 -52 106 -33 106 29 0 17 -4
37 -8 43 -10 16 -45 22 -70 13z"/>
<path d="M8273 1290 c-18 -7 -23 -17 -23 -47 0 -68 64 -83 95 -22 16 29 7 69
-15 69 -4 0 -14 2 -22 4 -7 3 -23 1 -35 -4z"/>
<path d="M2750 1252 c-12 -10 -24 -30 -25 -45 -4 -30 6 -34 28 -12 8 8 17 11
21 8 3 -3 12 0 20 6 12 10 14 9 12 -6 -2 -11 -10 -17 -22 -16 -10 2 -25 -1
-33 -6 -20 -13 3 -41 33 -41 59 0 88 68 46 110 -25 25 -51 25 -80 2z"/>
<path d="M3783 1200 c-40 -24 -53 -48 -53 -100 0 -34 6 -48 34 -76 36 -36 68
-43 123 -24 78 28 85 154 11 200 -41 25 -74 25 -115 0z m97 -60 c39 -39 20
-90 -33 -90 -63 0 -84 35 -51 85 20 31 56 33 84 5z"/>
<path d="M7075 1160 c-11 -17 5 -50 25 -50 18 0 30 19 30 46 0 16 -45 19 -55
4z"/>
<path d="M5352 1031 c-8 -5 -12 -21 -10 -37 4 -35 44 -47 65 -18 17 23 16 29
-3 48 -17 18 -32 20 -52 7z"/>
</g>
</svg>
